<svg  viewBox="0 0 577 377" fill="none" xmlns="http://www.w3.org/2000/svg">
<g id="LOGIN_SVG_IMG_GROUP">
<g id="background">
<path id="Vector"  d="M326.367 54.565C289.382 54.6148 253.782 44.0668 219.732 32.3489C185.681 20.6311 151.892 7.50953 115.595 1.94928C92.2517 -1.6248 65.7067 -1.29627 47.4592 11.681C29.8946 24.1654 24.8082 44.8284 22.3541 63.9184C20.5086 78.2795 19.6576 93.3524 26.5696 106.489C31.369 115.608 39.5823 123.125 45.3713 131.816C65.5781 162.052 53.4263 200.675 33.7885 231.612C24.5806 246.127 13.7944 260.04 6.83286 275.387C-0.128688 290.734 -2.98357 308.136 4.11652 323.284C11.1523 338.297 27.0446 349.193 44.0997 356.635C78.7343 371.778 119.059 375.023 158.3 376.273C245.163 379.045 332.195 373.391 418.994 367.736C451.115 365.645 483.38 363.539 514.838 357.481C532.304 354.121 550.289 349.134 562.674 338.202C578.393 324.324 581.609 301.665 570.169 285.377C550.987 258.059 500.405 252.907 486.651 223.349C479.066 207.076 485.607 188.414 495.24 172.729C515.902 139.074 551.467 108.928 552.065 71.2856C552.476 45.4357 533.981 20.218 506.358 8.98297C477.403 -2.78464 437.925 0.241886 417.639 22.1742C396.779 44.7687 359.022 54.5302 326.367 54.565Z" fill="#46C3A1"/>
</g>
<g id="boyDownload">
<g id="downloadMobile">
<path id="Vector_2" d="M380.884 179.693H379.916V153.918C379.916 149.962 378.298 146.167 375.418 143.369C372.539 140.572 368.633 139 364.561 139H308.355C306.338 139 304.342 139.386 302.479 140.136C300.616 140.885 298.923 141.984 297.497 143.369C296.071 144.755 294.94 146.399 294.169 148.209C293.397 150.019 293 151.959 293 153.918V295.324C293 299.28 294.618 303.075 297.497 305.872C300.377 308.67 304.282 310.242 308.355 310.242H364.561C368.633 310.242 372.539 308.67 375.418 305.872C378.298 303.075 379.916 299.28 379.916 295.324V198.041H380.884V179.693Z" fill="#3F3D56"/>
<path id="Vector_3" d="M365.181 142.881H357.844C358.181 143.685 358.31 144.557 358.219 145.42C358.128 146.284 357.819 147.112 357.321 147.833C356.823 148.553 356.15 149.143 355.361 149.551C354.573 149.96 353.693 150.173 352.8 150.173H320.6C319.707 150.173 318.827 149.96 318.039 149.551C317.25 149.143 316.577 148.553 316.079 147.833C315.581 147.112 315.272 146.284 315.181 145.42C315.09 144.557 315.219 143.685 315.556 142.881H308.703C307.198 142.881 305.707 143.169 304.315 143.729C302.924 144.289 301.66 145.11 300.595 146.144C299.531 147.179 298.686 148.407 298.11 149.759C297.533 151.11 297.237 152.559 297.237 154.022V295.22C297.237 296.683 297.533 298.132 298.11 299.483C298.686 300.835 299.531 302.063 300.595 303.098C301.66 304.132 302.924 304.953 304.315 305.513C305.707 306.073 307.198 306.361 308.703 306.361H365.181C368.222 306.361 371.138 305.187 373.289 303.098C375.439 301.008 376.647 298.175 376.647 295.22V295.22V154.022C376.647 152.559 376.351 151.11 375.774 149.759C375.198 148.407 374.354 147.179 373.289 146.144C372.224 145.11 370.96 144.289 369.569 143.729C368.178 143.169 366.686 142.881 365.181 142.881V142.881Z" fill="white"/>
<g id="download_background">
<path id="Ellipse 44" d="M336.942 248.231C352.11 248.231 364.407 236.284 364.407 221.547C364.407 206.81 352.11 194.863 336.942 194.863C321.774 194.863 309.477 206.81 309.477 221.547C309.477 236.284 321.774 248.231 336.942 248.231Z" fill="#46C3A1"/>
</g>
<g id="downloadarrow">
<path id="Vector_4" d="M345.081 223.37L338.251 230.205C338.102 230.351 337.924 230.465 337.729 230.542C337.533 230.618 337.323 230.656 337.112 230.651H337.09C336.878 230.655 336.668 230.618 336.472 230.542C336.276 230.465 336.097 230.351 335.948 230.205L329.121 223.37C329.099 223.345 329.073 223.323 329.05 223.301C328.777 223.017 328.632 222.64 328.645 222.252C328.659 221.864 328.83 221.497 329.121 221.231C329.433 220.946 329.845 220.788 330.273 220.788C330.701 220.788 331.112 220.946 331.424 221.231L335.47 225.339V214.747C335.489 214.339 335.669 213.954 335.973 213.672C336.276 213.389 336.681 213.232 337.101 213.232C337.521 213.232 337.925 213.389 338.229 213.672C338.533 213.954 338.713 214.339 338.732 214.747V225.339L342.775 221.231C343.087 220.946 343.499 220.788 343.928 220.788C344.356 220.788 344.768 220.946 345.081 221.231C345.103 221.253 345.126 221.275 345.152 221.301C345.424 221.585 345.569 221.962 345.555 222.35C345.542 222.738 345.371 223.104 345.081 223.37V223.37Z" fill="white"/>
</g>
</g>
<g id="boy">
<path id="Vector_5" d="M484.973 345.43L480.985 345.43L479.089 330.487L484.973 330.487L484.973 345.43Z" fill="#9F616A"/>
<path id="Vector_6" d="M485.989 349.185L473.133 349.185V349.027C473.133 347.737 473.66 346.5 474.598 345.589C475.537 344.677 476.81 344.165 478.137 344.165H478.137L485.99 344.165L485.989 349.185Z" fill="#2F2E41"/>
<path id="Vector_7" d="M454.681 345.302L450.829 344.301L452.969 329.39L458.654 330.867L454.681 345.302Z" fill="#9F616A"/>
<path id="Vector_8" d="M454.665 349.185L442.245 345.958L442.287 345.806C442.63 344.56 443.468 343.498 444.617 342.852C445.766 342.207 447.132 342.031 448.414 342.364L448.414 342.364L456 344.335L454.665 349.185Z" fill="#2F2E41"/>
<path id="Vector_9" d="M487.267 261.689L490.606 265.459L486.287 342.068H477.061L472.409 283.12L457.986 343.649L448.394 341.363L457.116 264.483L487.267 261.689Z" fill="black"/>
<path id="Vector_10" d="M459.345 212.229L468.532 207.752L482.659 207.993L494.816 214.037L487.9 247.6L490.887 265.099H490.887C479.339 267.96 467.248 268.057 455.653 265.381L455.561 265.359C455.561 265.359 462.427 241.687 459.504 234.462L459.345 212.229Z" fill="#CBCBCB"/>
<path id="Vector_11" d="M485.922 194.341C485.912 191.662 484.808 189.097 482.853 187.208C480.898 185.319 478.252 184.261 475.495 184.266C472.738 184.271 470.095 185.339 468.147 187.235C466.2 189.13 465.106 191.7 465.106 194.379C465.106 197.057 466.2 199.627 468.147 201.522C470.095 203.418 472.738 204.486 475.495 204.491C478.252 204.496 480.898 203.438 482.853 201.549C484.808 199.66 485.912 197.095 485.922 194.416C485.922 194.391 485.922 194.366 485.922 194.341Z" fill="#9F616A"/>
<path id="Vector_12" d="M470.853 188.563C471.392 188.07 472.102 187.792 472.843 187.783C473.955 187.748 475.621 188.132 476.33 189.01C476.9 189.716 476.927 190.687 476.929 191.584L476.935 194.06C476.937 194.793 476.946 195.557 477.289 196.209C477.631 196.862 478.418 197.357 479.136 197.135C479.988 196.871 480.363 195.771 481.234 195.573C481.888 195.424 482.56 195.889 482.846 196.479C483.087 197.091 483.167 197.752 483.078 198.402C482.996 199.699 481.082 200.213 480.811 201.485C480.654 202.221 480.105 203.689 480.811 203.381C484.063 203.065 485.491 201.219 486.979 199.482L490.337 195.563C490.72 195.174 491.015 194.711 491.201 194.204C491.285 193.848 491.315 193.483 491.29 193.12C491.272 192.146 491.245 191.172 491.208 190.199C491.177 189.348 490.957 188.275 490.099 188.1C489.653 188.009 489.063 188.168 488.828 187.789C488.739 187.599 488.725 187.385 488.787 187.185C488.976 186.213 489.296 185.196 488.967 184.26C488.47 182.848 486.76 182.269 485.249 182.003C483.738 181.736 482.042 181.507 481.093 180.334C480.839 179.944 480.564 179.568 480.268 179.207C479.833 178.823 479.299 178.561 478.722 178.449C476.846 177.988 474.865 178.159 473.102 178.934C472.371 179.258 471.637 179.694 470.835 179.645C470.002 179.594 469.29 179.024 468.468 178.886C467.14 178.662 465.87 179.629 465.216 180.774C464.405 182.192 464.33 184.135 465.476 185.316C466.048 185.905 466.9 186.31 467.138 187.086C467.234 187.402 467.212 187.742 467.297 188.061C467.397 188.378 467.587 188.662 467.845 188.879C468.103 189.096 468.42 189.238 468.757 189.288C469.569 189.416 470.257 189.055 470.853 188.563Z" fill="#2F2E41"/>
<path id="Vector_13" d="M458.078 236.699C458.275 237.193 458.582 237.638 458.976 238.004C459.37 238.369 459.842 238.647 460.358 238.816C460.874 238.986 461.423 239.043 461.964 238.985C462.506 238.926 463.028 238.753 463.493 238.477L482.146 248.057L482.75 243.643L464.625 233.258C464.096 232.53 463.311 232.015 462.418 231.811C461.524 231.607 460.585 231.729 459.778 232.153C458.971 232.577 458.352 233.274 458.039 234.112C457.725 234.95 457.739 235.87 458.078 236.699V236.699Z" fill="#9F616A"/>
<path id="Vector_14" d="M482.935 237.462C482.631 237.902 482.231 238.271 481.765 238.544C481.298 238.818 480.775 238.988 480.233 239.044C479.691 239.099 479.143 239.039 478.628 238.866C478.112 238.694 477.642 238.414 477.25 238.046L456.892 243.429L457.069 237.824L477.321 232.713C478.001 232.114 478.883 231.779 479.801 231.77C480.718 231.761 481.607 232.08 482.299 232.665C482.991 233.251 483.438 234.062 483.555 234.946C483.672 235.831 483.452 236.726 482.935 237.462V237.462Z" fill="#9F616A"/>
<path id="Vector_15" d="M490.847 214.279L494.816 214.037C494.816 214.037 499.464 219.995 496.886 226.461C496.886 226.461 497.333 249.685 487.039 248.731C476.746 247.777 473.493 247.777 473.493 247.777L476.583 239.404L483.495 237.33C483.495 237.33 481.365 228.2 485.397 224.401L490.847 214.279Z" fill="#CBCBCB"/>
<path id="Vector_16" d="M462.183 214.075L461.622 211.281C461.622 211.281 453.348 211.092 451.712 223.273C451.712 223.273 444.272 241.503 451.565 243.85C458.858 246.197 466.88 243.85 466.88 243.85L466.275 235.811L458.251 234.22C458.251 234.22 462.396 229.009 460.139 224.49L462.183 214.075Z" fill="#CBCBCB"/>
<path id="Vector_17" d="M541.675 350H417.76C417.674 350 417.591 349.967 417.53 349.907C417.469 349.848 417.435 349.768 417.435 349.684C417.435 349.6 417.469 349.52 417.53 349.461C417.591 349.401 417.674 349.368 417.76 349.368H541.675C541.761 349.368 541.844 349.401 541.905 349.461C541.966 349.52 542 349.6 542 349.684C542 349.768 541.966 349.848 541.905 349.907C541.844 349.967 541.761 350 541.675 350Z" fill="#968C8C"/>
</g>
</g>
<g id="girlAudio">
<g id="audiomobile">
<path id="Vector_18" d="M136.853 72.9629H135.752V45.1167C135.752 40.8423 133.914 36.7429 130.643 33.7205C127.371 30.698 122.934 29 118.307 29H54.4457C52.1547 29 49.8861 29.4169 47.7695 30.2268C45.6529 31.0367 43.7297 32.2239 42.1097 33.7204C40.4898 35.217 39.2047 36.9937 38.328 38.949C37.4513 40.9044 37 43.0001 37 45.1166V197.883C37 200 37.4512 202.096 38.328 204.051C39.2047 206.006 40.4897 207.783 42.1097 209.28C43.7297 210.776 45.6529 211.963 47.7695 212.773C49.8861 213.583 52.1547 214 54.4457 214H118.307C122.934 214 127.371 212.302 130.643 209.28C133.914 206.257 135.752 202.158 135.752 197.883V92.7844H136.853V72.9629Z" fill="#E6E6E6"/>
<path id="Vector_19" d="M119.011 33.1929H110.675C111.058 34.0611 111.204 35.0032 111.101 35.936C110.997 36.8688 110.647 37.7637 110.081 38.542C109.515 39.3203 108.75 39.958 107.854 40.3989C106.958 40.8399 105.959 41.0706 104.944 41.0706H68.3587C67.3437 41.0706 66.3443 40.8399 65.4485 40.3989C64.5527 39.958 63.788 39.3203 63.2218 38.542C62.6557 37.7637 62.3054 36.8688 62.2018 35.936C62.0982 35.0031 62.2446 34.0611 62.6279 33.1929H54.8421C51.3868 33.1929 48.073 34.4609 45.6297 36.718C43.1865 38.9752 41.8138 42.0365 41.8138 45.2286V197.771C41.8138 199.352 42.1508 200.917 42.8056 202.377C43.4603 203.837 44.4199 205.164 45.6297 206.282C46.8395 207.399 48.2757 208.286 49.8564 208.891C51.437 209.496 53.1312 209.807 54.8421 209.807H119.011C120.722 209.807 122.416 209.496 123.996 208.891C125.577 208.286 127.013 207.399 128.223 206.282C129.433 205.164 130.392 203.837 131.047 202.377C131.702 200.917 132.039 199.352 132.039 197.771V197.771V45.2286C132.039 43.648 131.702 42.083 131.047 40.6227C130.392 39.1625 129.433 37.8357 128.223 36.7181C127.013 35.6004 125.577 34.7139 123.996 34.109C122.416 33.5042 120.722 33.1929 119.011 33.1929V33.1929Z" fill="white"/>
<g id="colorline">
<path id="color line" d="M52.2752 124.916C52.2022 124.916 52.1322 124.89 52.0806 124.842C52.029 124.794 52 124.73 52 124.662V77.2542C52 77.1868 52.029 77.1221 52.0806 77.0744C52.1322 77.0268 52.2022 77 52.2752 77C52.3481 77 52.4181 77.0268 52.4697 77.0744C52.5213 77.1221 52.5503 77.1868 52.5503 77.2542V124.662C52.5503 124.73 52.5213 124.794 52.4697 124.842C52.4181 124.89 52.3481 124.916 52.2752 124.916Z" fill="#00795C"/>
</g>
<g id="grayline">
<path id="Vector_20" d="M49.7797 104.987C49.7067 104.987 49.6367 104.96 49.5851 104.913C49.5335 104.865 49.5045 104.8 49.5045 104.733V95.836C49.5045 95.7686 49.5335 95.7039 49.5851 95.6562C49.6367 95.6086 49.7067 95.5818 49.7797 95.5818C49.8527 95.5818 49.9226 95.6086 49.9742 95.6562C50.0258 95.7039 50.0548 95.7686 50.0548 95.836V104.733C50.0548 104.8 50.0258 104.865 49.9742 104.913C49.9226 104.96 49.8527 104.987 49.7797 104.987Z" fill="#CCCCCC"/>
<path id="Vector_21" d="M51.7058 106.385C51.6328 106.385 51.5629 106.358 51.5113 106.311C51.4596 106.263 51.4307 106.198 51.4307 106.131V94.4379C51.4307 94.3704 51.4596 94.3058 51.5113 94.2581C51.5629 94.2104 51.6328 94.1837 51.7058 94.1837C51.7788 94.1837 51.8488 94.2104 51.9004 94.2581C51.952 94.3058 51.981 94.3704 51.981 94.4379V106.131C51.981 106.198 51.952 106.263 51.9004 106.311C51.8488 106.358 51.7788 106.385 51.7058 106.385Z" fill="#CCCCCC"/>
<path id="Vector_22" d="M53.632 107.275C53.559 107.275 53.489 107.248 53.4374 107.2C53.3858 107.153 53.3568 107.088 53.3568 107.021V93.5482C53.3568 93.4808 53.3858 93.4161 53.4374 93.3685C53.489 93.3208 53.559 93.294 53.632 93.294C53.7049 93.294 53.7749 93.3208 53.8265 93.3685C53.8781 93.4161 53.9071 93.4808 53.9071 93.5482V107.021C53.9071 107.088 53.8781 107.153 53.8265 107.2C53.7749 107.248 53.7049 107.275 53.632 107.275Z" fill="#CCCCCC"/>
<path id="Vector_23" d="M55.5581 109.563C55.4851 109.563 55.4151 109.536 55.3635 109.488C55.3119 109.441 55.283 109.376 55.283 109.309V91.2605C55.283 91.1931 55.3119 91.1284 55.3635 91.0807C55.4151 91.0331 55.4851 91.0063 55.5581 91.0063C55.6311 91.0063 55.7011 91.0331 55.7527 91.0807C55.8043 91.1284 55.8333 91.1931 55.8333 91.2605V109.309C55.8333 109.376 55.8043 109.441 55.7527 109.488C55.7011 109.536 55.6311 109.563 55.5581 109.563Z" fill="#CCCCCC"/>
<path id="Vector_24" d="M57.4841 112.994C57.4112 112.994 57.3412 112.968 57.2896 112.92C57.238 112.872 57.209 112.808 57.209 112.74V87.8287C57.209 87.7613 57.238 87.6966 57.2896 87.649C57.3412 87.6013 57.4112 87.5745 57.4841 87.5745C57.5571 87.5745 57.6271 87.6013 57.6787 87.649C57.7303 87.6966 57.7593 87.7613 57.7593 87.8287V112.74C57.7593 112.808 57.7303 112.872 57.6787 112.92C57.6271 112.968 57.5571 112.994 57.4841 112.994Z" fill="#CCCCCC"/>
<path id="Vector_25" d="M59.4103 109.563C59.3373 109.563 59.2673 109.536 59.2157 109.488C59.1641 109.441 59.1351 109.376 59.1351 109.309V91.2605C59.1351 91.1931 59.1641 91.1284 59.2157 91.0807C59.2673 91.0331 59.3373 91.0063 59.4103 91.0063C59.4833 91.0063 59.5533 91.0331 59.6049 91.0807C59.6565 91.1284 59.6855 91.1931 59.6855 91.2605V109.309C59.6855 109.376 59.6565 109.441 59.6049 109.488C59.5533 109.536 59.4833 109.563 59.4103 109.563Z" fill="#CCCCCC"/>
<path id="Vector_26" d="M61.3364 111.215C61.2635 111.215 61.1935 111.188 61.1419 111.141C61.0903 111.093 61.0613 111.028 61.0613 110.961V89.6081C61.0613 89.5407 61.0903 89.4761 61.1419 89.4284C61.1935 89.3807 61.2635 89.3539 61.3364 89.3539C61.4094 89.3539 61.4794 89.3807 61.531 89.4284C61.5826 89.4761 61.6116 89.5407 61.6116 89.6081V110.961C61.6116 111.028 61.5826 111.093 61.531 111.141C61.4794 111.188 61.4094 111.215 61.3364 111.215Z" fill="#CCCCCC"/>
<path id="Vector_27" d="M63.2626 106.894C63.1896 106.894 63.1196 106.867 63.068 106.819C63.0164 106.771 62.9874 106.707 62.9874 106.639V93.9295C62.9874 93.8621 63.0164 93.7974 63.068 93.7497C63.1196 93.7021 63.1896 93.6753 63.2626 93.6753C63.3356 93.6753 63.4055 93.7021 63.4571 93.7497C63.5088 93.7974 63.5377 93.8621 63.5377 93.9295V106.639C63.5377 106.707 63.5088 106.771 63.4571 106.819C63.4055 106.867 63.3356 106.894 63.2626 106.894Z" fill="#CCCCCC"/>
<path id="Vector_28" d="M65.1887 107.91C65.1158 107.91 65.0458 107.884 64.9942 107.836C64.9426 107.788 64.9136 107.724 64.9136 107.656V92.9127C64.9136 92.8453 64.9426 92.7806 64.9942 92.733C65.0458 92.6853 65.1158 92.6585 65.1887 92.6585C65.2617 92.6585 65.3317 92.6853 65.3833 92.733C65.4349 92.7806 65.4639 92.8453 65.4639 92.9127V107.656C65.4639 107.724 65.4349 107.788 65.3833 107.836C65.3317 107.884 65.2617 107.91 65.1887 107.91Z" fill="#CCCCCC"/>
<path id="Vector_29" d="M67.1148 104.987C67.0418 104.987 66.9718 104.96 66.9202 104.913C66.8686 104.865 66.8396 104.8 66.8396 104.733V95.836C66.8396 95.7686 66.8686 95.7039 66.9202 95.6562C66.9718 95.6086 67.0418 95.5818 67.1148 95.5818C67.1877 95.5818 67.2577 95.6086 67.3093 95.6562C67.3609 95.7039 67.3899 95.7686 67.3899 95.836V104.733C67.3899 104.8 67.3609 104.865 67.3093 104.913C67.2577 104.96 67.1877 104.987 67.1148 104.987Z" fill="#CCCCCC"/>
<path id="Vector_30" d="M68.7658 104.987C68.6928 104.987 68.6228 104.96 68.5712 104.913C68.5196 104.865 68.4906 104.8 68.4906 104.733V95.836C68.4906 95.7686 68.5196 95.7039 68.5712 95.6562C68.6228 95.6086 68.6928 95.5818 68.7658 95.5818C68.8387 95.5818 68.9087 95.6086 68.9603 95.6562C69.0119 95.7039 69.0409 95.7686 69.0409 95.836V104.733C69.0409 104.8 69.0119 104.865 68.9603 104.913C68.9087 104.96 68.8387 104.987 68.7658 104.987Z" fill="#CCCCCC"/>
<path id="Vector_31" d="M70.6919 106.385C70.6189 106.385 70.5489 106.358 70.4973 106.311C70.4457 106.263 70.4167 106.198 70.4167 106.131V94.4379C70.4167 94.3704 70.4457 94.3058 70.4973 94.2581C70.5489 94.2104 70.6189 94.1837 70.6919 94.1837C70.7649 94.1837 70.8349 94.2104 70.8865 94.2581C70.9381 94.3058 70.9671 94.3704 70.9671 94.4379V106.131C70.9671 106.198 70.9381 106.263 70.8865 106.311C70.8349 106.358 70.7649 106.385 70.6919 106.385Z" fill="#CCCCCC"/>
<path id="Vector_32" d="M72.6181 107.275C72.5451 107.275 72.4751 107.248 72.4235 107.2C72.3719 107.153 72.3429 107.088 72.3429 107.021V93.5482C72.3429 93.4808 72.3719 93.4161 72.4235 93.3685C72.4751 93.3208 72.5451 93.294 72.6181 93.294C72.691 93.294 72.761 93.3208 72.8126 93.3685C72.8642 93.4161 72.8932 93.4808 72.8932 93.5482V107.021C72.8932 107.088 72.8642 107.153 72.8126 107.2C72.761 107.248 72.691 107.275 72.6181 107.275Z" fill="#CCCCCC"/>
<path id="Vector_33" d="M74.5442 109.563C74.4712 109.563 74.4012 109.536 74.3496 109.488C74.298 109.441 74.269 109.376 74.269 109.309V91.2605C74.269 91.1931 74.298 91.1284 74.3496 91.0807C74.4012 91.0331 74.4712 91.0063 74.5442 91.0063C74.6172 91.0063 74.6872 91.0331 74.7388 91.0807C74.7904 91.1284 74.8194 91.1931 74.8194 91.2605V109.309C74.8194 109.376 74.7904 109.441 74.7388 109.488C74.6872 109.536 74.6172 109.563 74.5442 109.563Z" fill="#CCCCCC"/>
<path id="Vector_34" d="M76.4702 117.062C76.3973 117.062 76.3273 117.035 76.2757 116.987C76.2241 116.939 76.1951 116.875 76.1951 116.807V83.7615C76.1951 83.6941 76.2241 83.6294 76.2757 83.5818C76.3273 83.5341 76.3973 83.5073 76.4702 83.5073C76.5432 83.5073 76.6132 83.5341 76.6648 83.5818C76.7164 83.6294 76.7454 83.6941 76.7454 83.7615V116.807C76.7454 116.875 76.7164 116.939 76.6648 116.987C76.6132 117.035 76.5432 117.062 76.4702 117.062Z" fill="#CCCCCC"/>
<path id="Vector_35" d="M78.3964 109.563C78.3234 109.563 78.2534 109.536 78.2018 109.488C78.1502 109.441 78.1212 109.376 78.1212 109.309V91.2605C78.1212 91.1931 78.1502 91.1284 78.2018 91.0807C78.2534 91.0331 78.3234 91.0063 78.3964 91.0063C78.4694 91.0063 78.5393 91.0331 78.5909 91.0807C78.6425 91.1284 78.6715 91.1931 78.6715 91.2605V109.309C78.6715 109.376 78.6425 109.441 78.5909 109.488C78.5393 109.536 78.4694 109.563 78.3964 109.563Z" fill="#CCCCCC"/>
<path id="Vector_36" d="M80.3225 111.215C80.2495 111.215 80.1796 111.188 80.128 111.141C80.0763 111.093 80.0474 111.028 80.0474 110.961V89.6081C80.0474 89.5407 80.0763 89.4761 80.128 89.4284C80.1796 89.3807 80.2495 89.3539 80.3225 89.3539C80.3955 89.3539 80.4655 89.3807 80.5171 89.4284C80.5687 89.4761 80.5977 89.5407 80.5977 89.6081V110.961C80.5977 111.028 80.5687 111.093 80.5171 111.141C80.4655 111.188 80.3955 111.215 80.3225 111.215Z" fill="#CCCCCC"/>
<path id="Vector_37" d="M82.2487 106.894C82.1757 106.894 82.1057 106.867 82.0541 106.819C82.0025 106.771 81.9735 106.707 81.9735 106.639V93.9295C81.9735 93.8621 82.0025 93.7974 82.0541 93.7497C82.1057 93.7021 82.1757 93.6753 82.2487 93.6753C82.3216 93.6753 82.3916 93.7021 82.4432 93.7497C82.4948 93.7974 82.5238 93.8621 82.5238 93.9295V106.639C82.5238 106.707 82.4948 106.771 82.4432 106.819C82.3916 106.867 82.3216 106.894 82.2487 106.894Z" fill="#CCCCCC"/>
<path id="Vector_38" d="M84.1747 107.91C84.1017 107.91 84.0317 107.884 83.9801 107.836C83.9285 107.788 83.8995 107.724 83.8995 107.656V92.9127C83.8995 92.8453 83.9285 92.7806 83.9801 92.733C84.0317 92.6853 84.1017 92.6585 84.1747 92.6585C84.2477 92.6585 84.3177 92.6853 84.3693 92.733C84.4209 92.7806 84.4499 92.8453 84.4499 92.9127V107.656C84.4499 107.724 84.4209 107.788 84.3693 107.836C84.3177 107.884 84.2477 107.91 84.1747 107.91Z" fill="#CCCCCC"/>
<path id="Vector_39" d="M86.1008 104.987C86.0279 104.987 85.9579 104.96 85.9063 104.913C85.8547 104.865 85.8257 104.8 85.8257 104.733V95.836C85.8257 95.7686 85.8547 95.7039 85.9063 95.6562C85.9579 95.6086 86.0279 95.5818 86.1008 95.5818C86.1738 95.5818 86.2438 95.6086 86.2954 95.6562C86.347 95.7039 86.376 95.7686 86.376 95.836V104.733C86.376 104.8 86.347 104.865 86.2954 104.913C86.2438 104.96 86.1738 104.987 86.1008 104.987Z" fill="#CCCCCC"/>
<path id="Vector_40" d="M87.7518 104.987C87.6789 104.987 87.6089 104.96 87.5573 104.913C87.5057 104.865 87.4767 104.8 87.4767 104.733V95.836C87.4767 95.7686 87.5057 95.7039 87.5573 95.6562C87.6089 95.6086 87.6789 95.5818 87.7518 95.5818C87.8248 95.5818 87.8948 95.6086 87.9464 95.6562C87.998 95.7039 88.027 95.7686 88.027 95.836V104.733C88.027 104.8 87.998 104.865 87.9464 104.913C87.8948 104.96 87.8248 104.987 87.7518 104.987Z" fill="#CCCCCC"/>
<path id="Vector_41" d="M89.678 106.385C89.605 106.385 89.535 106.358 89.4834 106.311C89.4318 106.263 89.4028 106.198 89.4028 106.131V94.4379C89.4028 94.3704 89.4318 94.3058 89.4834 94.2581C89.535 94.2104 89.605 94.1837 89.678 94.1837C89.751 94.1837 89.821 94.2104 89.8726 94.2581C89.9242 94.3058 89.9532 94.3704 89.9532 94.4379V106.131C89.9532 106.198 89.9242 106.263 89.8726 106.311C89.821 106.358 89.751 106.385 89.678 106.385Z" fill="#CCCCCC"/>
<path id="Vector_42" d="M91.604 107.275C91.531 107.275 91.461 107.248 91.4094 107.2C91.3578 107.153 91.3289 107.088 91.3289 107.021V93.5482C91.3289 93.4808 91.3578 93.4161 91.4094 93.3685C91.461 93.3208 91.531 93.294 91.604 93.294C91.677 93.294 91.747 93.3208 91.7986 93.3685C91.8502 93.4161 91.8792 93.4808 91.8792 93.5482V107.021C91.8792 107.088 91.8502 107.153 91.7986 107.2C91.747 107.248 91.677 107.275 91.604 107.275Z" fill="#CCCCCC"/>
<path id="Vector_43" d="M93.5302 109.563C93.4572 109.563 93.3872 109.536 93.3356 109.488C93.284 109.441 93.255 109.376 93.255 109.309V91.2605C93.255 91.1931 93.284 91.1284 93.3356 91.0807C93.3872 91.0331 93.4572 91.0063 93.5302 91.0063C93.6031 91.0063 93.6731 91.0331 93.7247 91.0807C93.7763 91.1284 93.8053 91.1931 93.8053 91.2605V109.309C93.8053 109.376 93.7763 109.441 93.7247 109.488C93.6731 109.536 93.6031 109.563 93.5302 109.563Z" fill="#CCCCCC"/>
<path id="Vector_44" d="M95.4563 112.994C95.3833 112.994 95.3133 112.968 95.2617 112.92C95.2101 112.872 95.1812 112.808 95.1812 112.74V87.8287C95.1812 87.7613 95.2101 87.6966 95.2617 87.649C95.3133 87.6013 95.3833 87.5745 95.4563 87.5745C95.5293 87.5745 95.5993 87.6013 95.6509 87.649C95.7025 87.6966 95.7315 87.7613 95.7315 87.8287V112.74C95.7315 112.808 95.7025 112.872 95.6509 112.92C95.5993 112.968 95.5293 112.994 95.4563 112.994Z" fill="#CCCCCC"/>
<path id="Vector_45" d="M97.3825 109.563C97.3095 109.563 97.2395 109.536 97.1879 109.488C97.1363 109.441 97.1073 109.376 97.1073 109.309V91.2605C97.1073 91.1931 97.1363 91.1284 97.1879 91.0807C97.2395 91.0331 97.3095 91.0063 97.3825 91.0063C97.4554 91.0063 97.5254 91.0331 97.577 91.0807C97.6286 91.1284 97.6576 91.1931 97.6576 91.2605V109.309C97.6576 109.376 97.6286 109.441 97.577 109.488C97.5254 109.536 97.4554 109.563 97.3825 109.563Z" fill="#CCCCCC"/>
<path id="Vector_46" d="M99.3086 111.215C99.2356 111.215 99.1656 111.188 99.114 111.141C99.0624 111.093 99.0334 111.028 99.0334 110.961V89.6081C99.0334 89.5407 99.0624 89.4761 99.114 89.4284C99.1656 89.3807 99.2356 89.3539 99.3086 89.3539C99.3816 89.3539 99.4516 89.3807 99.5032 89.4284C99.5548 89.4761 99.5838 89.5407 99.5838 89.6081V110.961C99.5838 111.028 99.5548 111.093 99.5032 111.141C99.4516 111.188 99.3816 111.215 99.3086 111.215Z" fill="#CCCCCC"/>
<path id="Vector_47" d="M101.235 106.894C101.162 106.894 101.092 106.867 101.04 106.819C100.988 106.771 100.959 106.707 100.959 106.639V93.9295C100.959 93.8621 100.988 93.7974 101.04 93.7497C101.092 93.7021 101.162 93.6753 101.235 93.6753C101.308 93.6753 101.378 93.7021 101.429 93.7497C101.481 93.7974 101.51 93.8621 101.51 93.9295V106.639C101.51 106.707 101.481 106.771 101.429 106.819C101.378 106.867 101.308 106.894 101.235 106.894Z" fill="#CCCCCC"/>
<path id="Vector_48" d="M103.161 107.91C103.088 107.91 103.018 107.884 102.966 107.836C102.915 107.788 102.886 107.724 102.886 107.656V92.9127C102.886 92.8453 102.915 92.7806 102.966 92.733C103.018 92.6853 103.088 92.6585 103.161 92.6585C103.234 92.6585 103.304 92.6853 103.355 92.733C103.407 92.7806 103.436 92.8453 103.436 92.9127V107.656C103.436 107.724 103.407 107.788 103.355 107.836C103.304 107.884 103.234 107.91 103.161 107.91Z" fill="#CCCCCC"/>
<path id="Vector_49" d="M105.087 104.987C105.014 104.987 104.944 104.96 104.892 104.913C104.841 104.865 104.812 104.8 104.812 104.733V95.836C104.812 95.7686 104.841 95.7039 104.892 95.6562C104.944 95.6086 105.014 95.5818 105.087 95.5818C105.16 95.5818 105.23 95.6086 105.281 95.6562C105.333 95.7039 105.362 95.7686 105.362 95.836V104.733C105.362 104.8 105.333 104.865 105.281 104.913C105.23 104.96 105.16 104.987 105.087 104.987Z" fill="#CCCCCC"/>
<path id="Vector_50" d="M106.738 104.987C106.665 104.987 106.595 104.96 106.543 104.913C106.492 104.865 106.463 104.8 106.463 104.733V95.836C106.463 95.7686 106.492 95.7039 106.543 95.6562C106.595 95.6086 106.665 95.5818 106.738 95.5818C106.811 95.5818 106.881 95.6086 106.932 95.6562C106.984 95.7039 107.013 95.7686 107.013 95.836V104.733C107.013 104.8 106.984 104.865 106.932 104.913C106.881 104.96 106.811 104.987 106.738 104.987Z" fill="#CCCCCC"/>
<path id="Vector_51" d="M108.664 106.385C108.591 106.385 108.521 106.358 108.469 106.311C108.418 106.263 108.389 106.198 108.389 106.131V94.4379C108.389 94.3704 108.418 94.3058 108.469 94.2581C108.521 94.2104 108.591 94.1837 108.664 94.1837C108.737 94.1837 108.807 94.2104 108.859 94.2581C108.91 94.3058 108.939 94.3704 108.939 94.4379V106.131C108.939 106.198 108.91 106.263 108.859 106.311C108.807 106.358 108.737 106.385 108.664 106.385Z" fill="#CCCCCC"/>
<path id="Vector_52" d="M110.59 107.275C110.517 107.275 110.447 107.248 110.396 107.2C110.344 107.153 110.315 107.088 110.315 107.021V93.5482C110.315 93.4808 110.344 93.4161 110.396 93.3685C110.447 93.3208 110.517 93.294 110.59 93.294C110.663 93.294 110.733 93.3208 110.785 93.3685C110.836 93.4161 110.865 93.4808 110.865 93.5482V107.021C110.865 107.088 110.836 107.153 110.785 107.2C110.733 107.248 110.663 107.275 110.59 107.275Z" fill="#CCCCCC"/>
<path id="Vector_53" d="M112.516 109.563C112.443 109.563 112.373 109.536 112.322 109.488C112.27 109.441 112.241 109.376 112.241 109.309V91.2605C112.241 91.1931 112.27 91.1284 112.322 91.0807C112.373 91.0331 112.443 91.0063 112.516 91.0063C112.589 91.0063 112.659 91.0331 112.711 91.0807C112.762 91.1284 112.791 91.1931 112.791 91.2605V109.309C112.791 109.376 112.762 109.441 112.711 109.488C112.659 109.536 112.589 109.563 112.516 109.563Z" fill="#CCCCCC"/>
<path id="Vector_54" d="M114.442 117.062C114.369 117.062 114.299 117.035 114.248 116.987C114.196 116.939 114.167 116.875 114.167 116.807V83.7615C114.167 83.6941 114.196 83.6294 114.248 83.5818C114.299 83.5341 114.369 83.5073 114.442 83.5073C114.515 83.5073 114.585 83.5341 114.637 83.5818C114.689 83.6294 114.718 83.6941 114.718 83.7615V116.807C114.718 116.875 114.689 116.939 114.637 116.987C114.585 117.035 114.515 117.062 114.442 117.062Z" fill="#CCCCCC"/>
<path id="Vector_55" d="M116.369 109.563C116.296 109.563 116.226 109.536 116.174 109.488C116.122 109.441 116.093 109.376 116.093 109.309V91.2605C116.093 91.1931 116.122 91.1284 116.174 91.0807C116.226 91.0331 116.296 91.0063 116.369 91.0063C116.442 91.0063 116.512 91.0331 116.563 91.0807C116.615 91.1284 116.644 91.1931 116.644 91.2605V109.309C116.644 109.376 116.615 109.441 116.563 109.488C116.512 109.536 116.442 109.563 116.369 109.563Z" fill="#CCCCCC"/>
<path id="Vector_56" d="M118.295 111.215C118.222 111.215 118.152 111.188 118.1 111.141C118.048 111.093 118.019 111.028 118.019 110.961V89.6081C118.019 89.5407 118.048 89.4761 118.1 89.4284C118.152 89.3807 118.222 89.3539 118.295 89.3539C118.368 89.3539 118.438 89.3807 118.489 89.4284C118.541 89.4761 118.57 89.5407 118.57 89.6081V110.961C118.57 111.028 118.541 111.093 118.489 111.141C118.438 111.188 118.368 111.215 118.295 111.215Z" fill="#CCCCCC"/>
<path id="Vector_57" d="M120.221 106.894C120.148 106.894 120.078 106.867 120.026 106.819C119.975 106.771 119.946 106.707 119.946 106.639V93.9295C119.946 93.8621 119.975 93.7974 120.026 93.7497C120.078 93.7021 120.148 93.6753 120.221 93.6753C120.294 93.6753 120.364 93.7021 120.415 93.7497C120.467 93.7974 120.496 93.8621 120.496 93.9295V106.639C120.496 106.707 120.467 106.771 120.415 106.819C120.364 106.867 120.294 106.894 120.221 106.894Z" fill="#CCCCCC"/>
<path id="Vector_58" d="M122.147 107.91C122.074 107.91 122.004 107.884 121.952 107.836C121.901 107.788 121.872 107.724 121.872 107.656V92.9127C121.872 92.8453 121.901 92.7806 121.952 92.733C122.004 92.6853 122.074 92.6585 122.147 92.6585C122.22 92.6585 122.29 92.6853 122.341 92.733C122.393 92.7806 122.422 92.8453 122.422 92.9127V107.656C122.422 107.724 122.393 107.788 122.341 107.836C122.29 107.884 122.22 107.91 122.147 107.91Z" fill="#CCCCCC"/>
<path id="Vector_59" d="M124.073 104.987C124 104.987 123.93 104.96 123.878 104.913C123.827 104.865 123.798 104.8 123.798 104.733V95.836C123.798 95.7686 123.827 95.7039 123.878 95.6562C123.93 95.6086 124 95.5818 124.073 95.5818C124.146 95.5818 124.216 95.6086 124.268 95.6562C124.319 95.7039 124.348 95.7686 124.348 95.836V104.733C124.348 104.8 124.319 104.865 124.268 104.913C124.216 104.96 124.146 104.987 124.073 104.987Z" fill="#CCCCCC"/>
</g>
<path id="Vector_60" d="M57.4841 166.382V175.457L65.1886 170.919L57.4841 166.382Z" fill="#3F3D56"/>
<path id="Vector_61" d="M90.2717 174.519C92.4175 172.538 92.4129 169.32 90.2614 167.33C88.1099 165.341 84.6262 165.334 82.4803 167.314C80.3344 169.295 80.339 172.513 82.4905 174.503C84.6421 176.492 88.1258 176.499 90.2717 174.519Z" fill="#46C3A1"/>
<path id="paus" d="M110.395 174.984H108.51C108.26 174.984 108.02 174.892 107.844 174.729C107.667 174.566 107.567 174.345 107.566 174.114V167.724C107.567 167.493 107.667 167.271 107.843 167.108C108.02 166.945 108.26 166.853 108.51 166.852H110.395C110.645 166.852 110.885 166.944 111.062 167.107C111.239 167.271 111.339 167.493 111.339 167.724V174.117C111.338 174.231 111.314 174.344 111.266 174.449C111.218 174.555 111.149 174.65 111.061 174.731C110.973 174.811 110.869 174.875 110.755 174.919C110.641 174.962 110.518 174.984 110.395 174.984V174.984ZM116.369 174.117V167.724C116.369 167.493 116.269 167.272 116.093 167.108C115.917 166.945 115.677 166.853 115.428 166.852H113.54C113.29 166.853 113.05 166.945 112.873 167.108C112.696 167.271 112.597 167.493 112.596 167.724V174.117C112.597 174.348 112.697 174.569 112.874 174.732C113.05 174.895 113.29 174.986 113.54 174.986H115.428C115.551 174.986 115.673 174.964 115.788 174.92C115.902 174.876 116.006 174.812 116.093 174.732C116.18 174.651 116.25 174.555 116.297 174.45C116.344 174.344 116.369 174.231 116.369 174.117H116.369Z" fill="#3F3D56"/>
<path id="downgray" d="M111.043 131.046H62.8093C62.7226 131.046 62.6395 131.014 62.5783 130.957C62.517 130.9 62.4827 130.823 62.4827 130.743C62.4827 130.663 62.517 130.586 62.5783 130.53C62.6395 130.473 62.7226 130.441 62.8093 130.441H111.043C111.13 130.441 111.214 130.472 111.275 130.529C111.336 130.586 111.371 130.663 111.371 130.743C111.371 130.823 111.336 130.9 111.275 130.957C111.214 131.014 111.13 131.046 111.043 131.046V131.046Z" fill="#CCCCCC"/>
<path id="upgrey" d="M111.043 70.0383H62.8093C62.7226 70.038 62.6395 70.006 62.5783 69.9493C62.517 69.8926 62.4827 69.8157 62.4827 69.7356C62.4827 69.6555 62.517 69.5786 62.5783 69.5219C62.6395 69.4651 62.7226 69.4332 62.8093 69.4329H111.043C111.13 69.4332 111.213 69.4651 111.274 69.5219C111.336 69.5786 111.37 69.6555 111.37 69.7356C111.37 69.8157 111.336 69.8926 111.274 69.9493C111.213 70.006 111.13 70.038 111.043 70.0383V70.0383Z" fill="#CCCCCC"/>
</g>
<g id="girl">
<path id="Vector_62" d="M207.101 131.607C204.87 130.66 203.403 127.952 203.487 125.282C203.57 122.612 205.091 120.115 207.189 118.841C208.212 118.236 209.381 117.875 210.593 117.79C211.804 117.706 213.019 117.9 214.128 118.357C216.38 119.242 219.403 119.483 220.756 121.684C221.796 123.375 221.422 127.148 220.685 129.028C220.049 130.654 218.493 131.57 216.975 132.082C215.296 132.644 213.505 132.866 211.724 132.734C209.943 132.601 208.214 132.117 206.654 131.314" fill="#2F2E41"/>
<path id="Vector_63" d="M231.784 206.279L228.623 207.366L222.58 196.618L227.245 195.013L231.784 206.279Z" fill="#FFB8B8"/>
<path id="Vector_64" d="M226.028 207.308L232.126 205.211L233.554 208.758L223.618 212.174C223.431 211.709 223.344 211.213 223.364 210.717C223.383 210.22 223.508 209.732 223.732 209.28C223.956 208.828 224.274 208.421 224.668 208.083C225.062 207.745 225.524 207.481 226.028 207.308Z" fill="#2F2E41"/>
<path id="Vector_65" d="M201.457 209.281H198.083L196.479 197.26H201.457L201.457 209.281Z" fill="#FFB8B8"/>
<path id="Vector_66" d="M195.674 208.39H202.18V212.174H191.578C191.578 211.677 191.683 211.185 191.889 210.726C192.095 210.267 192.397 209.85 192.777 209.498C193.158 209.147 193.609 208.868 194.106 208.678C194.603 208.488 195.136 208.39 195.674 208.39V208.39Z" fill="#2F2E41"/>
<path id="Vector_67" d="M191.2 165.951C191.629 165.909 192.044 165.78 192.414 165.573C192.783 165.366 193.1 165.087 193.34 164.756C193.58 164.424 193.739 164.048 193.805 163.653C193.871 163.259 193.843 162.855 193.722 162.472L204.818 144.787L200.937 143.353L189.845 160.644C189.161 160.874 188.593 161.328 188.247 161.92C187.902 162.512 187.803 163.2 187.971 163.854C188.138 164.508 188.559 165.083 189.154 165.469C189.749 165.856 190.477 166.027 191.2 165.951V165.951Z" fill="#FFB8B8"/>
<path id="Vector_68" d="M202.326 151.074L196.428 147.689L201.99 138.327C202.234 137.915 202.566 137.552 202.965 137.261C203.364 136.97 203.822 136.755 204.313 136.63C204.803 136.505 205.315 136.472 205.82 136.533C206.324 136.595 206.81 136.749 207.248 136.986C207.687 137.224 208.07 137.541 208.374 137.917C208.678 138.294 208.897 138.723 209.018 139.18C209.14 139.636 209.161 140.11 209.08 140.574C208.999 141.038 208.819 141.482 208.549 141.881L202.326 151.074Z" fill="#2F2E41"/>
<path id="Vector_69" d="M224.844 201.124C224.615 201.124 224.391 201.065 224.196 200.954C224.002 200.843 223.844 200.684 223.742 200.494L209.07 172.595C208.98 172.431 208.837 172.296 208.66 172.21C208.484 172.124 208.282 172.091 208.085 172.115C207.887 172.14 207.702 172.22 207.556 172.345C207.41 172.471 207.309 172.635 207.268 172.816L202.041 199.406C201.983 199.664 201.831 199.895 201.61 200.061C201.389 200.227 201.113 200.319 200.828 200.32H197.499C197.189 200.321 196.891 200.215 196.662 200.022C196.434 199.83 196.292 199.565 196.265 199.28C194.219 178.541 195.326 163.45 199.556 154.424C199.675 154.174 199.888 153.971 200.155 153.852C200.423 153.733 200.727 153.706 201.014 153.776L217.919 157.972C218.132 158.025 218.326 158.13 218.481 158.275C218.635 158.42 218.745 158.6 218.799 158.798L229.395 198.725C229.471 199.008 229.428 199.307 229.274 199.561C229.121 199.815 228.867 200.006 228.567 200.094L225.22 201.07C225.099 201.106 224.972 201.124 224.844 201.124V201.124Z" fill="black"/>
<path id="Vector_70" d="M211.712 134.139C215.445 134.139 218.471 131.343 218.471 127.895C218.471 124.447 215.445 121.652 211.712 121.652C207.98 121.652 204.954 124.447 204.954 127.895C204.954 131.343 207.98 134.139 211.712 134.139Z" fill="#FFB8B8"/>
<path id="Vector_71" d="M218.095 137.024C218.095 137.024 212.042 133.974 207.364 137.279C207.364 137.279 201.448 142.744 203.374 148.082L198.559 160.665C202.369 167.339 213.523 166.258 218.921 160.665L218.508 148.59L218.095 137.024Z" fill="#46C3A1"/>
<path id="Vector_72" d="M221.927 170.636C220.874 170.662 219.831 170.448 218.889 170.012C217.403 169.275 216.488 167.89 216.171 165.894C215.64 162.561 216.077 157.979 216.54 153.129C217.142 146.82 217.764 140.297 216.098 136.707C216.011 136.518 215.981 136.311 216.01 136.107C216.04 135.904 216.129 135.711 216.267 135.55C216.405 135.39 216.588 135.266 216.796 135.193C217.003 135.12 217.229 135.1 217.447 135.136L222.187 135.89C222.434 135.931 222.662 136.039 222.841 136.2C223.02 136.362 223.142 136.57 223.192 136.797L229.762 167.633C229.816 167.882 229.778 168.142 229.654 168.369C229.53 168.597 229.327 168.779 229.077 168.888C227.646 169.51 224.676 170.636 221.927 170.636Z" fill="#2F2E41"/>
<path id="Vector_73" d="M197.108 170.226C196.938 170.226 196.77 170.194 196.614 170.131C195.834 169.82 194.756 169.368 193.41 168.787C189.692 167.184 199.498 145.038 201.502 140.615C201.571 140.461 201.676 140.323 201.81 140.211L207.178 135.697C207.385 135.549 207.638 135.464 207.9 135.457C208.163 135.449 208.421 135.519 208.637 135.655C208.854 135.792 209.018 135.989 209.106 136.217C209.193 136.445 209.2 136.694 209.125 136.926C208.184 139.842 206.515 144.732 204.748 149.908C201.961 158.076 199.078 166.523 198.307 169.362C198.24 169.609 198.086 169.828 197.868 169.984C197.651 170.141 197.384 170.226 197.108 170.226L197.108 170.226Z" fill="#2F2E41"/>
<path id="Vector_74" d="M234.838 164.869C235.06 164.527 235.198 164.144 235.243 163.746C235.287 163.349 235.236 162.948 235.095 162.571C234.953 162.194 234.723 161.85 234.422 161.564C234.121 161.277 233.756 161.055 233.352 160.914L224.759 142.077L221.181 144.074L229.437 162.671C229.224 163.314 229.274 164.006 229.577 164.617C229.879 165.228 230.415 165.716 231.08 165.987C231.746 166.258 232.496 166.294 233.189 166.088C233.882 165.882 234.468 165.448 234.838 164.869V164.869Z" fill="#FFB8B8"/>
<path id="Vector_75" d="M222.211 150.011L217.473 140.27C217.265 139.842 217.151 139.379 217.14 138.909C217.129 138.439 217.219 137.972 217.407 137.535C217.594 137.098 217.875 136.701 218.231 136.366C218.588 136.031 219.014 135.765 219.483 135.585C219.953 135.405 220.457 135.313 220.966 135.316C221.474 135.319 221.977 135.416 222.445 135.601C222.912 135.787 223.334 136.057 223.687 136.396C224.039 136.735 224.314 137.136 224.496 137.575L228.688 147.702L222.211 150.011Z" fill="#2F2E41"/>
<path id="Vector_76" d="M216.517 120.124C216.761 120.157 217.009 120.115 217.224 120.004C217.438 119.893 217.608 119.72 217.705 119.512C217.795 119.3 217.832 119.073 217.812 118.846C217.792 118.62 217.716 118.401 217.591 118.206C217.335 117.817 216.978 117.493 216.552 117.264C216.061 116.961 215.494 116.781 214.906 116.741C214.612 116.723 214.318 116.764 214.043 116.861C213.768 116.957 213.518 117.107 213.312 117.3C213.11 117.498 212.977 117.747 212.929 118.016C212.881 118.284 212.921 118.56 213.044 118.807C213.291 119.247 213.81 119.494 214.315 119.662C215.317 119.993 216.385 120.123 217.446 120.042" fill="#2F2E41"/>
<path id="Vector_77" d="M218.921 126.856C217.868 127.14 217.925 126.616 217.348 125.754C216.77 124.893 216.02 123.879 214.924 123.933C214.027 123.977 213.402 124.73 212.762 125.313C211.622 126.353 209.966 127.011 208.402 126.694C206.837 126.377 205.547 124.885 205.89 123.44C206.005 123.038 206.208 122.662 206.486 122.336C206.765 122.009 207.112 121.739 207.508 121.542C208.304 121.152 209.177 120.916 210.074 120.849C212.06 120.638 214.072 120.832 215.968 121.418C217.277 121.824 218.592 122.48 219.244 123.604C219.895 124.729 220.465 126.355 219.196 126.856L218.921 126.856Z" fill="#2F2E41"/>
<path id="Vector_78" d="M215.588 116.904C214.696 115.859 215.032 114.212 216.072 113.291C217.112 112.37 218.658 112.083 220.093 112.2C221.515 112.333 222.874 112.808 224.034 113.579C225.195 114.349 226.115 115.388 226.704 116.591C227.611 118.508 227.603 120.7 228.423 122.65C228.86 123.689 229.523 124.634 230.371 125.428C231.219 126.222 232.233 126.847 233.352 127.264C234.471 127.682 235.671 127.884 236.878 127.857C238.084 127.83 239.272 127.576 240.368 127.109C241.796 126.501 243.155 125.31 243.073 123.86C243.976 127.074 242.35 130.752 239.27 132.464C237.466 133.466 235.329 133.807 233.238 134.041C231.876 134.194 230.476 134.307 229.147 133.993C227.287 133.553 225.73 132.285 224.787 130.74C223.844 129.195 223.473 127.394 223.459 125.621C223.447 124.239 223.643 122.857 223.54 121.478C223.436 120.1 222.988 118.674 221.906 117.72C220.825 116.766 219 116.452 217.813 117.292C217.335 117.63 216.986 118.123 216.449 118.373C215.912 118.622 215.063 118.428 215.027 117.874L215.588 116.904Z" fill="#2F2E41"/>
<g id="Vector_79">
<path d="M254.663 213H167.337C167.248 213 167.162 213.053 167.099 213.147C167.036 213.241 167 213.368 167 213.5C167 213.632 167.036 213.759 167.099 213.853C167.162 213.947 167.248 214 167.337 214H254.663C254.752 214 254.838 213.947 254.901 213.853C254.965 213.759 255 213.632 255 213.5C255 213.368 254.965 213.241 254.901 213.147C254.838 213.053 254.752 213 254.663 213Z" fill="#968C8C"/>
<path d="M254.663 213H167.337C167.248 213 167.162 213.053 167.099 213.147C167.036 213.241 167 213.368 167 213.5C167 213.632 167.036 213.759 167.099 213.853C167.162 213.947 167.248 214 167.337 214H254.663C254.752 214 254.838 213.947 254.901 213.853C254.965 213.759 255 213.632 255 213.5C255 213.368 254.965 213.241 254.901 213.147C254.838 213.053 254.752 213 254.663 213Z" stroke="black"/>
</g>
</g>
</g>
</g>
<defs>
<style>
<!-- background animation -->
#background{
    animation: changeC 3s infinite alternate;
}
@keyframes changeC {
    0%{
opacity:0.1;
fill:#46C3A1;
    }
    100% {
opacity:0.3;
fill:#46C3A1;
    }
}
<!-- gray line animation -->
#grayline{
      animation: changeCo 3s infinite alternate;
}
@keyframes changeCo {
    100%{
opacity:1;
fill:#CCCCCC;
    }
    70% {
opacity:0.4;
fill:#CCCCCC;
    }
}

<!-- color line animation -->
#colorline{
   animation: moveToright 5s linear infinite;


}
  @keyframes moveToright {
    
      100% {
        transform: translateX(72px) ;
      }
  
  
    }

    #download_background{
           animation: changeColor 3s infinite alternate;
           transform-origin: center;
transform-box: fill-box;
    }
    @keyframes changeColor {
    0%{
opacity:0.5;
fill:#46C3A1;
transform: rotate(360deg);
    }
    100% {
opacity:1;
fill:#46C3A1;



    }
}


#downloadarrow{
     animation: moveTotop 2s linear infinite;
}
  @keyframes moveTotop {
           80% {
        transform: translateY(18px)  ;
        opacity:0.8;
      }
    
      100% {
        transform: translateY(18px)  ;
        opacity:0;
      }
  
  
    }
</style>
</defs>
</svg>
