<svg  viewBox="0 0 560 444" fill="none" xmlns="http://www.w3.org/2000/svg">
<g id="register">
<g id="background">
<path id="Vector"  d="M316.187 61.3123C280.356 61.3673 245.867 49.7075 212.878 36.7547C179.889 23.8018 147.155 9.29723 111.99 3.15095C89.3742 -0.799837 63.6573 -0.436674 45.979 13.9083C28.9622 27.7086 24.0345 50.5494 21.6569 71.6514C19.8689 87.5261 19.0445 104.188 25.7409 118.709C30.3906 128.789 38.3478 137.098 43.9561 146.705C63.5326 180.128 51.7599 222.821 32.7346 257.019C23.814 273.065 13.3642 288.444 6.6198 305.408C-0.124613 322.372 -2.89044 341.609 3.98818 358.353C10.8045 374.949 26.2011 386.994 42.7242 395.22C76.2785 411.958 115.345 415.546 153.362 416.927C237.516 419.992 321.833 413.741 405.925 407.49C437.044 405.179 468.303 402.852 498.78 396.155C515.701 392.441 533.125 386.928 545.123 374.844C560.352 359.503 563.467 334.456 552.385 316.452C533.801 286.254 484.797 280.559 471.471 247.885C464.123 229.898 470.46 209.269 479.793 191.93C499.81 154.728 534.266 121.405 534.846 79.7951C535.243 51.2207 517.326 23.3451 490.564 10.926C462.512 -2.08192 424.265 1.2636 404.612 25.5076C384.403 50.4834 347.824 61.2738 316.187 61.3123Z" fill="#46C3A1"/>
</g>
<g id="header">
<path id="Vector_2" d="M498.233 47.8977H37.6383C36.5501 47.8977 35.5064 48.3939 34.7369 49.2773C33.9674 50.1606 33.5351 51.3586 33.5351 52.6078V66.3311H502.336V52.6078C502.336 51.3586 501.904 50.1606 501.135 49.2773C500.365 48.3939 499.321 47.8977 498.233 47.8977Z" fill="#3F3D56"/>
</g>
<g id="squarewhite">
<path id="Vector_3" d="M33.5351 66.3311V375.153C33.5351 377.672 34.4068 380.087 35.9584 381.868C37.5099 383.65 39.6143 384.65 41.8086 384.65H494.063C496.257 384.65 498.362 383.65 499.913 381.868C501.465 380.087 502.336 377.672 502.336 375.153V66.3311H33.5351Z" fill="white"/>
</g>
<g id="f1">
<path id="Vector_4" opacity="0.8" d="M40.9602 59.1778C42.0191 59.1778 42.8776 58.1923 42.8776 56.9768C42.8776 55.7612 42.0191 54.7758 40.9602 54.7758C39.9012 54.7758 39.0428 55.7612 39.0428 56.9768C39.0428 58.1923 39.9012 59.1778 40.9602 59.1778Z" fill="#FF0000"/>
</g>
<g id="f2">
<path id="Vector_5" opacity="0.8" d="M46.233 59.1778C47.2919 59.1778 48.1504 58.1923 48.1504 56.9768C48.1504 55.7612 47.2919 54.7758 46.233 54.7758C45.1741 54.7758 44.3156 55.7612 44.3156 56.9768C44.3156 58.1923 45.1741 59.1778 46.233 59.1778Z" fill="white"/>
</g>
<g id="f3">
<path id="Vector_6" opacity="0.8" d="M51.5058 59.1778C52.5648 59.1778 53.4232 58.1923 53.4232 56.9768C53.4232 55.7612 52.5648 54.7758 51.5058 54.7758C50.4469 54.7758 49.5884 55.7612 49.5884 56.9768C49.5884 58.1923 50.4469 59.1778 51.5058 59.1778Z" fill="#46C3A1"/>
</g>
<g id="squaregroup">
<g id="colorBack">
<path id="Vector_7" d="M451.003 119.265H79.9886V305.249H451.003V119.265Z" fill="#3F3D56"/>
</g>
<g id="innerRing">
<path id="Vector_8" d="M181.131 167.131C173.831 167.131 166.695 169.616 160.625 174.272C154.555 178.927 149.824 185.544 147.031 193.286C144.237 201.028 143.506 209.547 144.93 217.766C146.354 225.985 149.87 233.534 155.032 239.46C160.194 245.385 166.77 249.421 173.93 251.055C181.09 252.69 188.511 251.851 195.256 248.644C202 245.438 207.764 240.007 211.82 233.039C215.876 226.072 218.041 217.88 218.041 209.5C218.041 203.936 217.086 198.427 215.231 193.286C213.376 188.146 210.657 183.475 207.23 179.541C203.803 175.607 199.734 172.486 195.256 170.356C190.777 168.227 185.978 167.131 181.131 167.131V167.131ZM187.751 210.518V230.58H174.703V210.518C172.897 208.949 171.566 206.769 170.898 204.285C170.23 201.801 170.259 199.139 170.98 196.675C171.701 194.211 173.078 192.069 174.916 190.551C176.755 189.033 178.962 188.217 181.227 188.217C183.491 188.217 185.699 189.033 187.537 190.551C189.376 192.069 190.753 194.211 191.474 196.675C192.195 199.139 192.223 201.801 191.555 204.285C190.887 206.769 189.556 208.949 187.751 210.518V210.518Z" fill="#46C3A1"/>
</g>
<g id="middleRing">
<path id="Vector_9" opacity="0.05" d="M181.131 167.131C173.831 167.131 166.695 169.616 160.625 174.272C154.555 178.927 149.824 185.544 147.031 193.286C144.237 201.028 143.506 209.547 144.93 217.766C146.354 225.985 149.87 233.534 155.032 239.46C160.194 245.385 166.77 249.421 173.93 251.055C181.09 252.69 188.511 251.851 195.256 248.644C202 245.438 207.764 240.007 211.82 233.039C215.876 226.072 218.041 217.88 218.041 209.5C218.041 203.936 217.086 198.427 215.231 193.286C213.376 188.146 210.657 183.475 207.23 179.541C203.803 175.607 199.734 172.486 195.256 170.356C190.777 168.227 185.978 167.131 181.131 167.131V167.131ZM187.751 210.518V230.58H174.703V210.518C172.897 208.949 171.566 206.769 170.898 204.285C170.23 201.801 170.259 199.139 170.98 196.675C171.701 194.211 173.078 192.069 174.916 190.551C176.755 189.033 178.962 188.217 181.227 188.217C183.491 188.217 185.699 189.033 187.537 190.551C189.376 192.069 190.753 194.211 191.474 196.675C192.195 199.139 192.223 201.801 191.555 204.285C190.887 206.769 189.556 208.949 187.751 210.518V210.518Z" fill="black"/>
</g>
<g id="topRing">
<path id="Vector_10" d="M181.131 155.026C171.745 155.026 162.57 158.221 154.766 164.206C146.962 170.192 140.88 178.7 137.288 188.654C133.696 198.608 132.756 209.561 134.587 220.128C136.418 230.695 140.938 240.401 147.575 248.02C154.212 255.638 162.667 260.826 171.873 262.928C181.078 265.03 190.62 263.951 199.291 259.828C207.962 255.705 215.374 248.723 220.588 239.765C225.803 230.807 228.586 220.274 228.586 209.5C228.586 195.053 223.586 181.197 214.687 170.981C205.787 160.765 193.717 155.026 181.131 155.026V155.026ZM189.639 210.81V236.6H172.862V210.81C170.54 208.793 168.828 205.989 167.969 202.794C167.109 199.6 167.146 196.176 168.072 193.007C168.999 189.837 170.77 187.082 173.135 185.13C175.499 183.179 178.338 182.128 181.251 182.128C184.163 182.128 187.002 183.179 189.367 185.13C191.731 187.082 193.502 189.837 194.429 193.007C195.356 196.176 195.392 199.6 194.533 202.794C193.673 205.989 191.962 208.793 189.639 210.81V210.81Z" fill="#46C3A1"/>
</g>
<path id="Vector_11" d="M401.63 202.353H248.239V221.061H401.63V202.353Z" fill="white"/>
<g id="color">
<path id="Vector_12" d="M401.63 236.468H368.555V255.176H401.63V236.468Z" fill="#46C3A1"/>
</g>
<g id="star1">
<path id="Vector_13" d="M263.339 211.426H260.563L263.032 208.598C263.076 208.546 263.101 208.476 263.101 208.403C263.101 208.33 263.076 208.26 263.032 208.207C263.01 208.181 262.983 208.161 262.954 208.147C262.925 208.133 262.893 208.126 262.862 208.126C262.83 208.126 262.799 208.133 262.77 208.147C262.74 208.161 262.714 208.181 262.692 208.207L260.223 211.041V207.85C260.223 207.777 260.198 207.707 260.153 207.655C260.108 207.603 260.047 207.574 259.983 207.574C259.92 207.576 259.86 207.605 259.815 207.657C259.771 207.708 259.745 207.777 259.744 207.85V211.041L257.28 208.191C257.258 208.165 257.231 208.144 257.202 208.131C257.173 208.117 257.141 208.109 257.11 208.109C257.078 208.109 257.047 208.117 257.018 208.131C256.988 208.144 256.962 208.165 256.94 208.191C256.895 208.243 256.871 208.313 256.871 208.386C256.871 208.459 256.895 208.529 256.94 208.581L259.408 211.41H256.628C256.565 211.411 256.505 211.441 256.46 211.492C256.415 211.543 256.39 211.612 256.388 211.685C256.388 211.758 256.414 211.828 256.458 211.879C256.503 211.931 256.564 211.96 256.628 211.96H259.408L256.94 214.794C256.895 214.846 256.871 214.916 256.871 214.989C256.871 215.062 256.895 215.132 256.94 215.184C256.986 215.234 257.047 215.261 257.11 215.261C257.173 215.261 257.234 215.234 257.28 215.184L259.744 212.351V215.537C259.744 215.61 259.769 215.68 259.814 215.731C259.859 215.783 259.92 215.812 259.983 215.812C260.047 215.812 260.108 215.783 260.153 215.731C260.198 215.68 260.223 215.61 260.223 215.537V212.351L262.692 215.184C262.738 215.234 262.799 215.261 262.862 215.261C262.925 215.261 262.986 215.234 263.032 215.184C263.076 215.132 263.101 215.062 263.101 214.989C263.101 214.916 263.076 214.846 263.032 214.794L260.563 211.96H263.339C263.402 211.96 263.463 211.931 263.508 211.879C263.553 211.828 263.578 211.758 263.578 211.685C263.575 211.615 263.548 211.549 263.503 211.501C263.459 211.453 263.4 211.426 263.339 211.426Z" fill="#46C3A1"/>
</g>
<g id="star2">
<path id="Vector_14" d="M273.405 211.426H270.63L273.098 208.598C273.143 208.546 273.167 208.476 273.167 208.403C273.167 208.33 273.143 208.26 273.098 208.207C273.076 208.181 273.05 208.161 273.02 208.147C272.991 208.133 272.96 208.126 272.928 208.126C272.896 208.126 272.865 208.133 272.836 208.147C272.807 208.161 272.78 208.181 272.758 208.207L270.289 211.041V207.85C270.289 207.777 270.264 207.707 270.219 207.655C270.174 207.603 270.113 207.574 270.05 207.574C269.987 207.576 269.926 207.605 269.882 207.657C269.837 207.708 269.811 207.777 269.81 207.85V211.041L267.346 208.191C267.324 208.165 267.297 208.144 267.268 208.131C267.239 208.117 267.208 208.109 267.176 208.109C267.144 208.109 267.113 208.117 267.084 208.131C267.055 208.144 267.028 208.165 267.006 208.191C266.962 208.243 266.937 208.313 266.937 208.386C266.937 208.459 266.962 208.529 267.006 208.581L269.474 211.41H266.694C266.631 211.411 266.571 211.441 266.526 211.492C266.481 211.543 266.456 211.612 266.455 211.685C266.455 211.758 266.48 211.828 266.525 211.879C266.57 211.931 266.631 211.96 266.694 211.96H269.474L267.006 214.794C266.962 214.846 266.937 214.916 266.937 214.989C266.937 215.062 266.962 215.132 267.006 215.184C267.052 215.234 267.113 215.261 267.176 215.261C267.239 215.261 267.3 215.234 267.346 215.184L269.81 212.351V215.537C269.81 215.61 269.835 215.68 269.88 215.731C269.925 215.783 269.986 215.812 270.05 215.812C270.113 215.812 270.174 215.783 270.219 215.731C270.264 215.68 270.289 215.61 270.289 215.537V212.351L272.758 215.184C272.804 215.234 272.865 215.261 272.928 215.261C272.991 215.261 273.052 215.234 273.098 215.184C273.143 215.132 273.167 215.062 273.167 214.989C273.167 214.916 273.143 214.846 273.098 214.794L270.63 211.96H273.405C273.469 211.96 273.53 211.931 273.575 211.879C273.62 211.828 273.645 211.758 273.645 211.685C273.641 211.615 273.614 211.549 273.57 211.501C273.525 211.453 273.466 211.426 273.405 211.426Z" fill="#46C3A1"/>
</g>
<g id="star3">
<path id="Vector_15" d="M283.471 211.426H280.696L283.165 208.598C283.209 208.546 283.234 208.476 283.234 208.403C283.234 208.33 283.209 208.26 283.165 208.207C283.142 208.181 283.116 208.161 283.087 208.147C283.057 208.133 283.026 208.126 282.994 208.126C282.963 208.126 282.931 208.133 282.902 208.147C282.873 208.161 282.847 208.181 282.824 208.207L280.356 211.041V207.85C280.356 207.777 280.33 207.707 280.285 207.655C280.24 207.603 280.18 207.574 280.116 207.574C280.053 207.576 279.993 207.605 279.948 207.657C279.903 207.708 279.878 207.777 279.876 207.85V211.041L277.412 208.191C277.39 208.165 277.364 208.144 277.334 208.131C277.305 208.117 277.274 208.109 277.242 208.109C277.211 208.109 277.179 208.117 277.15 208.131C277.121 208.144 277.094 208.165 277.072 208.191C277.028 208.243 277.003 208.313 277.003 208.386C277.003 208.459 277.028 208.529 277.072 208.581L279.541 211.41H276.761C276.697 211.411 276.637 211.441 276.592 211.492C276.548 211.543 276.522 211.612 276.521 211.685C276.521 211.758 276.546 211.828 276.591 211.879C276.636 211.931 276.697 211.96 276.761 211.96H279.541L277.072 214.794C277.028 214.846 277.003 214.916 277.003 214.989C277.003 215.062 277.028 215.132 277.072 215.184C277.118 215.234 277.179 215.261 277.242 215.261C277.305 215.261 277.366 215.234 277.412 215.184L279.876 212.351V215.537C279.876 215.61 279.902 215.68 279.946 215.731C279.991 215.783 280.052 215.812 280.116 215.812C280.18 215.812 280.24 215.783 280.285 215.731C280.33 215.68 280.356 215.61 280.356 215.537V212.351L282.824 215.184C282.87 215.234 282.931 215.261 282.994 215.261C283.058 215.261 283.118 215.234 283.165 215.184C283.209 215.132 283.234 215.062 283.234 214.989C283.234 214.916 283.209 214.846 283.165 214.794L280.696 211.96H283.471C283.535 211.96 283.596 211.931 283.641 211.879C283.686 211.828 283.711 211.758 283.711 211.685C283.707 211.615 283.681 211.549 283.636 211.501C283.591 211.453 283.533 211.426 283.471 211.426Z" fill="#46C3A1"/>
</g>
<g id="star4">
<path id="Vector_16" d="M293.538 211.426H290.762L293.231 208.598C293.275 208.546 293.3 208.476 293.3 208.403C293.3 208.33 293.275 208.26 293.231 208.207C293.209 208.181 293.182 208.161 293.153 208.147C293.124 208.133 293.092 208.126 293.061 208.126C293.029 208.126 292.998 208.133 292.969 208.147C292.939 208.161 292.913 208.181 292.891 208.207L290.422 211.041V207.85C290.422 207.777 290.397 207.707 290.352 207.655C290.307 207.603 290.246 207.574 290.182 207.574C290.119 207.576 290.059 207.605 290.014 207.657C289.969 207.708 289.944 207.777 289.943 207.85V211.041L287.479 208.191C287.456 208.165 287.43 208.144 287.401 208.131C287.372 208.117 287.34 208.109 287.309 208.109C287.277 208.109 287.246 208.117 287.216 208.131C287.187 208.144 287.161 208.165 287.138 208.191C287.094 208.243 287.069 208.313 287.069 208.386C287.069 208.459 287.094 208.529 287.138 208.581L289.607 211.41H286.827C286.764 211.411 286.703 211.441 286.659 211.492C286.614 211.543 286.588 211.612 286.587 211.685C286.587 211.758 286.612 211.828 286.657 211.879C286.702 211.931 286.763 211.96 286.827 211.96H289.607L287.138 214.794C287.094 214.846 287.069 214.916 287.069 214.989C287.069 215.062 287.094 215.132 287.138 215.184C287.185 215.234 287.245 215.261 287.309 215.261C287.372 215.261 287.433 215.234 287.479 215.184L289.943 212.351V215.537C289.943 215.61 289.968 215.68 290.013 215.731C290.058 215.783 290.119 215.812 290.182 215.812C290.246 215.812 290.307 215.783 290.352 215.731C290.397 215.68 290.422 215.61 290.422 215.537V212.351L292.891 215.184C292.937 215.234 292.998 215.261 293.061 215.261C293.124 215.261 293.185 215.234 293.231 215.184C293.275 215.132 293.3 215.062 293.3 214.989C293.3 214.916 293.275 214.846 293.231 214.794L290.762 211.96H293.538C293.601 211.96 293.662 211.931 293.707 211.879C293.752 211.828 293.777 211.758 293.777 211.685C293.774 211.615 293.747 211.549 293.702 211.501C293.658 211.453 293.599 211.426 293.538 211.426Z" fill="#46C3A1"/>
</g>

</g>
<g id="girl">
<path id="Vector_19" d="M412.953 437.094C412.56 438.459 412.953 440.165 414.017 440.908C414.448 441.171 414.912 441.357 415.392 441.458C416.043 441.669 416.716 441.774 417.391 441.771C418.221 441.727 419.016 441.353 419.846 441.221C419.941 441.194 420.043 441.209 420.128 441.265C420.17 441.316 420.201 441.377 420.219 441.444C420.237 441.511 420.242 441.581 420.234 441.65C420.243 442.191 420.278 442.731 420.339 443.268C420.34 443.386 420.363 443.503 420.406 443.61C420.449 443.717 420.511 443.812 420.589 443.89C420.708 443.954 420.841 443.981 420.972 443.967H423.57C423.629 441.347 423.379 438.73 422.827 436.186C422.791 435.992 422.726 435.806 422.635 435.636C422.415 435.359 422.125 435.167 421.806 435.086C421.171 434.783 420.485 434.645 419.798 434.684C418.959 434.811 418.259 435.433 417.545 435.95C416.83 436.467 415.857 436.924 414.99 436.66C414.122 436.395 413.398 435.565 412.953 437.094Z" fill="#3F3D56"/>
<path id="Vector_20" d="M374.806 434.679C374.076 435.577 373.18 436.276 372.184 436.726L371.743 436.968C371.682 436.994 371.63 437.043 371.595 437.105C371.586 437.148 371.586 437.193 371.594 437.235C371.603 437.278 371.619 437.318 371.642 437.353C372.009 438.004 372.552 438.501 373.187 438.766C373.822 439.031 374.515 439.051 375.161 438.822C375.446 438.74 375.711 438.582 375.933 438.36C376.298 437.862 376.507 437.239 376.527 436.588C376.672 435.917 376.647 435.213 376.455 434.558C375.789 432.835 375.544 433.617 374.806 434.679Z" fill="#FBBEBE"/>
<path id="Vector_21" d="M384.767 441.458C384.782 441.666 384.754 441.875 384.686 442.069C384.46 442.575 383.832 442.547 383.343 442.437C383.269 440.57 383.072 438.713 382.754 436.88C381.824 436.83 381.153 437.843 380.654 438.751L379.37 441.089C379.184 441.492 378.922 441.842 378.603 442.113C378.346 442.274 378.064 442.377 377.773 442.415C375.319 442.883 372.841 441.997 370.473 441.117C370.124 441.009 369.79 440.846 369.481 440.632C369.058 440.276 368.772 439.746 368.683 439.153C368.593 438.56 368.708 437.951 369.001 437.452C369.994 435.911 372.222 436.352 373.459 435.075C373.33 435.973 373.118 436.853 372.826 437.7C374.48 437.414 375.592 435.675 376.925 434.514C377.26 434.188 377.663 433.968 378.095 433.875C378.418 433.844 378.743 433.884 379.053 433.991C380.59 434.435 382.027 435.247 383.271 436.374C383.775 436.83 384.561 437.474 384.781 438.178C385.016 439.02 384.767 440.561 384.767 441.458Z" fill="#3F3D56"/>
<path id="Vector_22" d="M417.741 259.909C423.211 259.909 427.645 254.819 427.645 248.541C427.645 242.262 423.211 237.172 417.741 237.172C412.272 237.172 407.838 242.262 407.838 248.541C407.838 254.819 412.272 259.909 417.741 259.909Z" fill="#FBBEBE"/>
<path id="Vector_23" d="M437.251 315.66C437.211 317.833 436.942 319.993 436.45 322.092C435.981 324.699 435.376 327.272 434.638 329.796C434.068 331.628 433.354 333.466 433.358 335.408C433.358 336.217 433.473 337.114 433.042 337.752C432.658 338.2 432.174 338.518 431.642 338.671C431.377 338.752 431.132 338.903 430.928 339.112C430.723 339.322 430.564 339.583 430.463 339.876C430.013 339.104 429.676 338.253 429.466 337.356C428.606 334.333 427.808 331.294 427.069 328.239C427.002 328.063 426.973 327.871 426.984 327.679C426.996 327.487 427.048 327.301 427.136 327.138C427.258 327.017 427.4 326.925 427.553 326.868C428.045 326.638 428.495 326.306 428.881 325.889C429.063 325.704 429.212 325.482 429.322 325.234C429.462 324.84 429.525 324.416 429.509 323.991C429.509 322.532 429.509 321.08 429.476 319.622C429.456 318.275 429.5 316.929 429.61 315.588C429.61 315.324 429.653 314.9 429.691 314.449C429.763 313.585 429.907 312.584 430.315 312.248C430.923 311.781 432.745 312.408 433.435 312.518C434.624 312.705 435.832 312.925 436.992 313.184C437.16 313.995 437.247 314.826 437.251 315.66Z" fill="#3F3D56"/>
<path id="Vector_24" d="M414.261 259.914C414.975 261.647 415.531 263.551 415.325 265.455C415.283 265.971 415.141 266.469 414.908 266.913C414.218 268.129 412.77 268.349 411.51 268.421C411.244 268.395 410.977 268.431 410.723 268.525C410.47 268.62 410.235 268.771 410.033 268.971C409.865 269.252 409.782 269.589 409.799 269.93C409.815 270.271 409.93 270.595 410.124 270.853C410.53 271.349 411.033 271.727 411.591 271.954C413.585 272.961 415.738 273.791 417.904 273.56C418.911 273.45 419.889 273.115 420.891 272.944C421.983 272.808 423.08 272.738 424.179 272.735C425.483 272.68 426.782 272.531 428.081 272.383L431.522 271.992C431.711 271.995 431.893 271.919 432.035 271.778C432.289 271.436 431.963 270.936 431.647 270.677C429.821 269.125 427.496 268.058 426.456 265.725C425.976 264.624 425.828 263.315 425.473 262.126C425.118 260.938 424.553 259.865 424.332 258.654C424.215 257.592 424.162 256.522 424.174 255.452C424.186 254.372 423.844 253.327 423.215 252.524C422.53 251.792 421.538 251.605 420.608 251.561C418.316 251.446 415.877 252.073 414.252 253.927C413.815 254.428 413.441 255.028 412.991 255.479C412.54 255.93 411.927 256.062 412.224 256.657C412.521 257.251 413.106 257.62 413.422 258.142C413.743 258.706 414.023 259.299 414.261 259.914V259.914Z" fill="#FBBEBE"/>
<path id="Vector_25" d="M433.785 275.921C433.181 280.158 432.197 284.312 430.851 288.318C430.175 290.127 429.598 291.983 429.126 293.876C428.757 295.581 428.829 297.408 428.488 299.119C428.066 301.249 427.645 303.384 427.304 305.53C426.733 308.807 426.505 312.15 426.624 315.489C426.625 316.015 426.712 316.536 426.882 317.025C427.041 317.421 427.295 317.762 427.443 318.169C427.554 318.527 427.6 318.907 427.577 319.286C427.554 319.664 427.462 320.034 427.309 320.37C427.063 321 426.73 321.58 426.322 322.087C421.854 323.616 417.075 323.116 412.42 323.44C408.13 323.738 403.792 324.75 399.564 323.908C399.085 321.707 399.886 319.402 400.571 317.256C402.56 311.021 404.761 304.528 404.406 297.997C404.369 297.235 404.293 296.476 404.181 295.724C403.485 291.097 404.243 286.304 405.456 281.82C406.208 279.024 406.175 276.048 406.002 273.137C405.917 272.192 405.905 271.239 405.969 270.292C406.038 269.324 406.351 268.401 406.87 267.634C406.87 267.596 406.913 267.557 406.937 267.519C406.961 267.48 407.148 267.486 407.296 267.519C407.334 267.537 407.375 267.547 407.416 267.547C407.457 267.547 407.498 267.537 407.536 267.519L407.589 267.48C407.609 267.464 407.633 267.455 407.658 267.455C407.683 267.455 407.707 267.464 407.728 267.48C407.838 267.557 407.9 267.821 408.14 267.871C408.494 267.932 408.851 267.971 409.209 267.986C409.639 268.001 410.067 268.071 410.484 268.195H410.541C411.165 268.316 411.805 268.254 412.401 268.014C412.798 267.9 413.182 267.73 413.542 267.508C413.648 267.376 414.309 267.255 414.443 267.161C414.88 266.858 414.784 265.439 414.875 264.855C414.925 264.27 415.046 263.696 415.234 263.15C415.453 262.746 415.754 262.41 416.111 262.171C416.469 261.933 416.872 261.798 417.286 261.78C418.111 261.757 418.936 261.842 419.745 262.033C421.533 262.324 423.364 262.275 425.118 262.748C426 262.985 426.964 263.342 427.774 262.88C427.994 262.941 428.028 263.161 428.028 263.43C428.007 263.686 427.962 263.939 427.894 264.184C427.587 265.703 428.627 267.1 429.586 268.201C429.991 268.72 430.469 269.157 431 269.494C431.479 269.747 431.959 269.852 432.438 270.127C432.826 270.365 433.156 270.711 433.397 271.134C433.673 271.619 433.859 272.164 433.943 272.735C434.046 273.8 433.993 274.877 433.785 275.921Z" fill="#3F3D56"/>
<path id="Vector_26" opacity="0.1" d="M433.785 275.921C433.181 280.158 432.197 284.312 430.851 288.318C430.175 290.127 429.598 291.983 429.126 293.876C428.757 295.581 428.829 297.408 428.488 299.119C428.066 301.249 427.645 303.384 427.304 305.53C427.204 305.596 427.098 305.656 426.993 305.711C426.396 306.038 425.764 306.272 425.114 306.405C423.945 306.567 422.762 306.523 421.605 306.273L414.764 305.222C412.032 304.798 409.123 304.286 407.095 302.162C405.968 300.996 405.23 299.455 404.42 297.969C404.383 297.208 404.308 296.449 404.195 295.697C403.5 291.069 404.257 286.277 405.47 281.792C406.223 278.997 406.189 276.02 406.016 273.109C405.931 272.164 405.92 271.212 405.983 270.264C406.052 269.297 406.365 268.373 406.884 267.607C407.024 267.56 407.167 267.523 407.311 267.497V267.497C407.407 267.474 407.505 267.46 407.603 267.453H407.742C407.904 267.453 408.064 267.475 408.221 267.519C408.548 267.638 408.868 267.78 409.18 267.942H409.238C409.649 268.098 410.08 268.169 410.513 268.151C411.145 268.151 411.797 268.036 412.43 267.986C413.212 267.846 414.012 268.011 414.702 268.454C415.148 268.865 415.57 269.308 415.968 269.78C416.447 270.213 416.987 270.549 417.564 270.776C421.69 272.584 426.268 272.474 430.324 270.468C430.714 270.214 431.156 270.084 431.604 270.094C431.935 270.168 432.249 270.322 432.524 270.545C432.812 270.738 433.095 270.925 433.387 271.095C433.663 271.58 433.849 272.125 433.934 272.696C434.043 273.773 433.993 274.864 433.785 275.921V275.921Z" fill="black"/>
<path id="Vector_27" d="M437.96 272.278C436.051 271.609 434.217 270.686 432.496 269.527C432.219 269.305 431.906 269.152 431.575 269.076C431.126 269.07 430.683 269.199 430.291 269.45C426.236 271.455 421.66 271.566 417.535 269.758C416.959 269.529 416.42 269.193 415.939 268.762C415.54 268.292 415.118 267.849 414.673 267.436C413.096 266.264 410.915 267.64 409.151 266.886C408.838 266.725 408.518 266.584 408.193 266.462C406.798 266.06 405.379 267.656 404.008 267.172C403.498 268.763 403.121 270.407 402.881 272.08C402.687 274.002 402.583 275.934 402.57 277.869C402.57 279.03 402.522 280.191 402.57 281.352C402.739 281.384 402.9 281.455 403.044 281.562C403.187 281.669 403.31 281.809 403.404 281.974C403.467 282.165 403.493 282.371 403.479 282.575C403.466 282.779 403.414 282.978 403.327 283.157C402.325 286.112 401.309 289.099 399.79 291.746C400.861 292.479 401.855 293.35 402.752 294.343C404.43 296.379 405.254 299.235 407.066 301.117C409.108 303.235 412.018 303.752 414.736 304.171L421.576 305.222C422.734 305.471 423.919 305.517 425.09 305.359C425.739 305.223 426.369 304.988 426.964 304.66C427.352 304.474 427.707 304.205 428.009 303.868C428.262 303.539 428.47 303.168 428.627 302.768C429.169 301.524 429.663 300.253 430.118 298.965C430.276 298.509 430.516 297.975 430.947 297.936C433.488 295.306 435.885 292.61 438.425 289.98C439.446 289.009 440.362 287.9 441.153 286.678C442.413 284.538 441.268 281.506 441.153 278.92C441.139 278.258 441.066 277.6 440.937 276.955C440.525 275.079 439.556 272.834 437.96 272.278Z" fill="#46C3A1"/>
<g id="leftHand">
<path id="Vector_28" d="M441.172 278.364C441.158 277.699 441.086 277.037 440.956 276.389C440.525 274.529 439.551 272.278 437.95 271.717C436.297 271.136 434.701 270.362 433.186 269.406C432.898 263.507 434.077 257.471 432.793 251.754C432.313 249.663 431.522 247.66 431.312 245.52C431.048 242.856 431.681 240.017 430.755 237.563C430.027 235.626 428.426 234.262 426.705 233.546C424.984 232.831 423.129 232.638 421.303 232.446C419.002 232.231 411.553 231.219 408.955 233.579C408.776 233.739 408.615 233.924 408.475 234.13V234.13C408.418 234.22 408.367 234.316 408.322 234.416L408.298 234.46C408.246 234.574 408.203 234.694 408.169 234.817V234.817C408.132 234.952 408.105 235.09 408.087 235.23C408.087 235.274 408.087 235.318 408.087 235.362C408.087 235.406 408.087 235.555 408.087 235.654V235.802C408.087 235.901 408.087 236 408.087 236.105C408.087 236.209 408.087 236.182 408.087 236.22C408.121 236.716 408.183 237.211 408.183 237.701C408.188 237.944 408.169 238.188 408.126 238.427C407.966 239.076 407.695 239.682 407.33 240.21V240.21L407.244 240.353C407.191 240.441 407.138 240.523 407.09 240.611C407.042 240.699 407.004 240.765 406.966 240.843C406.927 240.92 406.889 240.969 406.855 241.041C406.809 241.131 406.767 241.225 406.731 241.321C406.731 241.376 406.678 241.426 406.659 241.481C406.599 241.63 406.551 241.784 406.515 241.943C406.403 242.421 406.393 242.923 406.486 243.407C406.615 244.024 406.838 244.611 407.143 245.14C407.263 245.366 407.392 245.586 407.526 245.806L407.862 246.329C407.799 246.839 407.766 247.354 407.761 247.869C407.761 249.592 408.102 251.293 408.758 252.843C409.414 254.392 410.368 255.751 411.548 256.816C411.738 259.14 411.717 261.48 411.486 263.799C411.443 264.283 411.39 264.773 411.332 265.257C411.275 265.741 411.232 266.06 411.174 266.462C410.473 266.577 409.758 266.515 409.079 266.281C408.767 266.12 408.447 265.979 408.121 265.857C406.726 265.455 405.302 267.051 403.922 266.567C403.922 266.644 403.883 266.715 403.859 266.787C403.571 266.581 403.24 266.469 402.901 266.462C402.081 266.418 401.415 265.736 400.82 265.092L398.994 263.117C398.875 262.996 398.769 262.859 398.678 262.709C398.579 262.495 398.505 262.268 398.457 262.033C398.15 260.894 397.407 259.986 396.688 259.122C396.552 258.925 396.371 258.774 396.166 258.687C396.086 258.673 396.006 258.673 395.926 258.687C395.877 258.61 395.824 258.537 395.768 258.467C395.644 258.304 395.511 258.149 395.37 258.005C394.498 257.08 394.411 256.288 393.654 255.254C392.993 254.267 392.394 253.228 391.861 252.145C391.799 251.567 391.713 250.973 391.607 250.373C391.366 249 391.014 247.655 390.557 246.356L389.599 243.918L389.489 244.045C388.793 242.856 388.051 242.207 387.384 242.361C386.267 242.625 385.716 245.112 385.893 248.364L386.277 251.666C386.277 251.748 386.31 251.831 386.33 251.914C386.261 252.305 386.225 252.703 386.224 253.102C386.224 253.564 386.598 253.905 386.795 254.318C387.109 254.877 387.276 255.529 387.274 256.194C387.25 256.431 387.188 256.657 387.178 256.888C387.204 257.405 387.361 257.902 387.629 258.318L390.025 262.941L390.505 263.909L390.534 263.953C390.685 264.291 390.905 264.582 391.176 264.8C391.27 265.958 391.537 267.088 391.967 268.14C392.048 268.349 392.139 268.548 392.235 268.746C392.88 269.962 393.638 271.093 394.498 272.119L395.639 273.588C396.765 275.029 397.892 276.477 399.114 277.808C399.551 278.343 400.08 278.768 400.667 279.057C400.954 279.189 401.267 279.232 401.573 279.181C401.88 279.129 402.169 278.986 402.412 278.766C402.412 279.448 402.412 280.13 402.412 280.813C402.59 280.825 402.762 280.892 402.909 281.006C403.057 281.121 403.176 281.278 403.253 281.463C403.33 281.647 403.363 281.852 403.349 282.056C403.334 282.26 403.272 282.456 403.169 282.623C402.162 285.589 401.146 288.582 399.622 291.24C400.698 291.971 401.695 292.844 402.594 293.843C403.177 294.584 403.696 295.39 404.142 296.247C404.185 296.654 404.219 297.056 404.238 297.458C404.593 304.017 402.383 310.526 400.403 316.777C399.833 318.549 399.21 320.403 399.258 322.246C398.882 322.512 398.523 322.808 398.184 323.132C398.577 324.31 398.424 325.361 398.38 326.621C398.366 327.376 398.231 328.122 397.983 328.822C397.774 329.307 397.544 329.779 397.292 330.236C396.051 332.751 395.778 335.738 395.528 338.611C395.38 340.344 395.965 342.463 395.279 344.014C394.095 346.677 393.045 349.517 392.882 352.477C392.877 353.143 392.803 353.806 392.662 354.452C392.513 355.003 392.25 355.47 392.115 356.01C391.977 356.732 391.945 357.476 392.019 358.211C392.111 360.848 391.769 363.482 391.013 365.975C390.414 367.939 389.752 370.041 390.222 372.06C389.065 373.455 388.351 375.255 388.194 377.172C388.182 377.663 388.131 378.151 388.041 378.63C387.894 379.121 387.702 379.591 387.466 380.034C386.501 382.051 386.049 384.339 386.162 386.637C384.724 388.876 384.005 391.638 383.578 394.384C383.152 397.13 382.965 399.925 382.418 402.638C381.69 406.225 380.371 409.852 380.113 413.527C378.559 414.666 377.888 416.873 377.591 418.958C377.294 421.044 377.246 423.234 376.484 425.159C376.091 426.161 375.525 427.058 375.151 428.081C374.889 428.896 374.696 429.738 374.576 430.596C374.346 431.939 374.145 433.435 374.427 434.723C374.021 435.217 373.546 435.632 373.023 435.95C373.1 435.609 373.162 435.268 373.215 434.921C371.978 436.208 369.735 435.757 368.747 437.303C368.451 437.802 368.335 438.413 368.425 439.008C368.514 439.603 368.802 440.134 369.227 440.489C369.536 440.706 369.87 440.87 370.219 440.979C372.616 441.86 375.079 442.745 377.543 442.278C377.835 442.242 378.117 442.139 378.372 441.975C378.693 441.704 378.957 441.355 379.144 440.952C379.513 440.28 379.882 439.609 380.247 438.938C381.13 439.24 382.028 439.481 382.936 439.659C383.027 440.539 383.094 441.419 383.128 442.3C383.607 442.41 384.249 442.443 384.475 441.931C384.543 441.738 384.571 441.528 384.556 441.32C384.556 440.93 384.604 440.412 384.633 439.884H384.729C386.191 439.952 387.646 439.614 388.971 438.899C388.458 434.024 390.15 429.259 391.617 424.648C393.165 419.795 394.493 414.853 395.83 409.912C396.789 406.434 397.848 403.067 398.788 399.584C399.97 395.182 401.157 390.78 402.349 386.378C402.867 384.441 403.39 382.526 403.984 380.6C405.235 376.703 406.72 372.91 408.428 369.249C408.907 368.209 409.386 367.18 409.779 366.101C410.259 364.786 410.599 363.411 410.982 362.051C411.818 359.263 412.824 356.545 413.993 353.919C414.026 353.847 414.05 353.781 414.084 353.715C414.472 355.536 414.86 357.385 415.119 359.218C415.47 361.464 415.497 363.762 415.201 366.019C414.971 367.554 414.534 369.073 414.587 370.63C414.659 372.781 415.661 374.735 416.155 376.809C416.473 378.361 416.653 379.947 416.691 381.541C416.826 384.017 417.995 386.796 417.171 389.091C414.606 396.359 415.848 404.569 414.386 412.201C413.633 416.119 411.328 419.8 411.51 423.806C411.638 426.649 411.855 429.484 412.162 432.313C412.236 433.205 412.438 434.077 412.761 434.893C412.952 435.323 413.172 435.735 413.418 436.126C413.207 436.219 413.029 436.467 412.876 436.99C412.483 438.365 412.876 440.071 413.94 440.842C414.374 441.108 414.841 441.293 415.325 441.392C415.977 441.604 416.651 441.712 417.329 441.711C417.54 441.698 417.75 441.668 417.957 441.623C418.698 441.98 419.455 442.293 420.224 442.558C420.224 442.784 420.263 443.01 420.287 443.235C420.288 443.353 420.311 443.469 420.354 443.576C420.397 443.684 420.459 443.779 420.536 443.857C420.655 443.921 420.788 443.948 420.919 443.934H423.522C423.522 443.686 423.522 443.433 423.522 443.186C423.82 443.221 424.121 443.185 424.406 443.079C424.691 442.973 424.953 442.799 425.176 442.569C425.406 442.233 425.57 441.842 425.655 441.425C426.365 438.663 427.069 435.898 427.769 433.133C428.608 430.075 428.957 426.869 428.8 423.668C427.875 413.527 429.907 403.353 429.246 393.184C428.847 387.073 429.121 380.928 430.06 374.894C430.276 373.53 430.54 372.143 430.636 370.784C430.847 368.22 430.588 365.628 430.746 363.08C430.799 362.189 430.904 361.303 431 360.417C431.657 354.919 432.001 349.377 432.031 343.827C432.016 341.988 431.917 340.152 431.733 338.325C432.233 338.179 432.687 337.873 433.042 337.444C433.469 336.806 433.358 335.909 433.354 335.095C433.354 333.147 434.068 331.309 434.643 329.471C435.381 326.936 435.986 324.353 436.455 321.735C436.95 319.625 437.221 317.454 437.26 315.269C437.26 315.049 437.251 314.829 437.231 314.609C437.412 314.465 437.563 314.277 437.672 314.059C437.798 313.736 437.875 313.392 437.903 313.041C438.075 311.638 438.252 310.229 438.425 308.82C438.553 307.812 438.679 306.805 438.804 305.799L440.328 293.589C440.457 292.527 440.592 291.471 440.721 290.414L441.119 287.256C441.162 286.882 441.21 286.508 441.244 286.156C442.413 283.911 441.296 280.917 441.172 278.364ZM428.455 324.079C427.889 322.538 427.362 320.959 427.496 319.297H427.443C427.569 318.786 427.547 318.241 427.381 317.745C427.232 317.344 426.973 317.003 426.815 316.601C426.645 316.111 426.557 315.588 426.556 315.06C426.437 311.713 426.668 308.363 427.242 305.079C427.304 304.693 427.371 304.303 427.434 303.918C427.635 303.784 427.819 303.619 427.98 303.428C428.232 303.098 428.441 302.727 428.598 302.327C429.14 301.078 429.634 299.807 430.089 298.514C430.238 298.096 430.453 297.612 430.823 297.507C430.746 300.726 431.034 304.011 429.893 306.916C429.676 307.385 429.515 307.885 429.413 308.402C429.308 309.222 429.605 310.053 429.5 310.867C429.447 311.291 429.289 311.682 429.226 312.1C429.179 312.305 429.18 312.521 429.229 312.726C429.277 312.931 429.373 313.117 429.504 313.266C429.568 313.317 429.637 313.358 429.711 313.387C429.682 313.607 429.658 313.833 429.639 314.048C429.6 314.499 429.581 314.923 429.557 315.187C429.447 316.533 429.404 317.885 429.428 319.237C429.428 320.695 429.476 322.153 429.456 323.639C429.474 324.065 429.412 324.491 429.274 324.888C429.179 325.092 429.056 325.278 428.91 325.438C428.771 324.943 428.618 324.508 428.455 324.079Z" fill="url(#paint0_linear_1350_169)"/>
<path id="Vector_29" d="M390.616 260.233C392.079 259.889 392.577 255.756 391.728 251.001C390.879 246.247 389.005 242.672 387.543 243.016C386.08 243.36 385.582 247.493 386.431 252.247C387.28 257.002 389.153 260.577 390.616 260.233Z" fill="#FBBEBE"/>
<path id="Vector_30" d="M397.264 261.268C396.88 262.148 395.96 262.572 395.25 263.128L392.82 265.043C392.658 265.211 392.467 265.339 392.261 265.42C392.054 265.502 391.835 265.534 391.617 265.516C391.419 265.432 391.238 265.304 391.084 265.138C390.93 264.973 390.806 264.774 390.72 264.553C390.722 264.538 390.722 264.523 390.72 264.509L390.217 263.54L387.82 258.929C387.554 258.516 387.399 258.023 387.375 257.51C387.375 257.273 387.447 257.053 387.466 256.816C387.472 256.152 387.305 255.5 386.986 254.945C386.795 254.533 386.411 254.192 386.421 253.729C386.402 253.122 386.494 252.517 386.689 251.952C386.941 251.43 387.301 250.987 387.739 250.665C387.964 250.477 388.194 250.301 388.434 250.114C388.561 250.015 388.702 249.94 388.851 249.894C389.249 249.801 389.642 250.18 390.045 250.197C391.775 251.528 392.441 254.049 393.803 255.864C394.57 256.899 394.646 257.691 395.514 258.616C395.653 258.759 395.787 258.913 395.917 259.072C396.088 259.287 396.233 259.528 396.348 259.788C396.506 260.261 397.46 260.817 397.264 261.268Z" fill="#3F3D56"/>
<path id="Vector_31" opacity="0.1" d="M397.264 261.268C396.88 262.148 395.96 262.572 395.25 263.128L392.82 265.042C392.658 265.21 392.467 265.339 392.261 265.42C392.054 265.502 391.835 265.534 391.617 265.516C391.419 265.432 391.238 265.303 391.084 265.138C390.93 264.973 390.806 264.774 390.72 264.553C390.72 264.426 390.72 264.289 390.72 264.157C390.702 263.711 390.754 263.266 390.874 262.841C391.112 262.219 391.481 261.675 391.948 261.257C392.85 260.276 393.923 259.526 395.097 259.056C395.28 258.974 395.479 258.951 395.672 258.99C395.747 259.012 395.818 259.047 395.883 259.094C396.055 259.309 396.2 259.55 396.314 259.81C396.506 260.261 397.46 260.817 397.264 261.268Z" fill="black"/>
<path id="Vector_32" d="M402.987 267.067C402.172 267.023 401.506 266.347 400.911 265.703L399.095 263.766C398.973 263.648 398.867 263.511 398.778 263.359C398.68 263.145 398.606 262.917 398.558 262.682C398.173 261.57 397.569 260.576 396.794 259.777C396.659 259.579 396.477 259.431 396.271 259.347C396.076 259.306 395.875 259.329 395.691 259.413C394.517 259.883 393.444 260.633 392.542 261.614C392.075 262.033 391.707 262.577 391.468 263.199C391.348 263.623 391.296 264.069 391.315 264.514C391.326 265.968 391.611 267.402 392.149 268.718C392.23 268.922 392.321 269.125 392.417 269.323C393.057 270.537 393.813 271.665 394.67 272.685L395.811 274.149C396.933 275.591 398.054 277.032 399.272 278.359C399.708 278.893 400.237 279.316 400.825 279.602C401.12 279.74 401.443 279.783 401.757 279.724C402.072 279.666 402.366 279.51 402.608 279.272C402.838 278.967 403.011 278.611 403.116 278.226C403.855 276.025 404.554 273.736 404.598 271.365C404.608 270.415 404.573 269.465 404.492 268.52C404.42 267.519 403.802 267.128 402.987 267.067Z" fill="#46C3A1"/>
</g>
<path id="Vector_33" d="M432.035 344.102C432.008 349.637 431.665 355.164 431.01 360.648C430.914 361.534 430.808 362.42 430.756 363.306C430.597 365.876 430.856 368.456 430.645 371.009C430.535 372.391 430.286 373.761 430.075 375.109C429.138 381.126 428.864 387.254 429.26 393.35C429.921 403.491 427.894 413.637 428.814 423.751C428.926 425.717 428.831 427.692 428.531 429.633C428.36 430.837 428.111 432.025 427.788 433.188C427.089 435.943 426.385 438.694 425.679 441.441C425.596 441.859 425.432 442.25 425.2 442.586C424.955 442.829 424.669 443.009 424.359 443.114C424.049 443.219 423.723 443.248 423.402 443.197C420.637 443.098 418.034 441.727 415.522 440.39C415.233 440.26 414.966 440.074 414.731 439.84C414.208 439.218 414.252 438.239 414.022 437.419C413.791 436.599 413.168 435.829 412.814 434.987C412.522 434.191 412.345 433.345 412.291 432.483C411.972 429.666 411.754 426.838 411.639 423.998C411.457 420.004 413.758 416.328 414.515 412.443C415.953 404.806 414.736 396.618 417.291 389.371C418.096 387.082 416.926 384.309 416.811 381.844C416.77 380.254 416.59 378.672 416.274 377.123C415.795 375.054 414.784 373.106 414.712 370.96C414.659 369.408 415.095 367.895 415.321 366.365C415.619 364.114 415.592 361.822 415.239 359.581C414.985 357.732 414.597 355.883 414.208 354.078L414.122 354.282C412.954 356.902 411.95 359.614 411.117 362.398C410.733 363.746 410.398 365.122 409.918 366.431C409.525 367.532 409.041 368.539 408.567 369.573C406.864 373.221 405.383 376.999 404.133 380.881C403.538 382.785 403.016 384.733 402.498 386.642L398.946 399.848C397.987 403.32 396.938 406.677 395.998 410.143C394.67 415.095 393.343 420.004 391.799 424.846C390.361 429.44 388.65 434.2 389.163 439.053C387.841 439.766 386.389 440.104 384.93 440.038C382.459 439.787 380.036 439.112 377.74 438.035C376.824 437.645 375.875 437.204 375.257 436.341C374.193 434.849 374.456 432.665 374.777 430.767C374.898 429.911 375.091 429.071 375.353 428.257C375.717 427.245 376.311 426.348 376.685 425.347C377.438 423.426 377.486 421.253 377.783 419.167C378.08 417.082 378.742 414.881 380.295 413.747C380.558 410.083 381.872 406.468 382.596 402.885C383.142 400.173 383.324 397.383 383.756 394.632C384.187 391.88 384.882 389.129 386.33 386.901C386.215 384.603 386.667 382.314 387.633 380.298C387.867 379.855 388.058 379.384 388.204 378.895C388.293 378.417 388.345 377.93 388.357 377.442C388.516 375.53 389.228 373.734 390.38 372.341C389.901 370.333 390.567 368.236 391.166 366.288C391.921 363.803 392.262 361.177 392.173 358.546C392.099 357.812 392.129 357.068 392.264 356.345C392.398 355.795 392.662 355.327 392.815 354.799C392.952 354.152 393.024 353.489 393.031 352.824C393.218 349.847 394.268 347.041 395.428 344.383C396.118 342.831 395.533 340.724 395.677 338.996C395.926 336.124 396.199 333.152 397.441 330.649C397.671 330.175 397.92 329.724 398.126 329.235C398.376 328.535 398.511 327.789 398.524 327.034C398.567 325.773 398.721 324.728 398.328 323.556C400.892 321.107 404.391 320.42 407.728 320.254C411.064 320.089 414.439 320.436 417.703 319.622C418.662 319.374 419.62 319.033 420.632 318.868C422.928 318.483 425.257 319.082 427.525 319.677C427.367 321.327 427.894 322.912 428.483 324.447C430.785 330.666 431.993 337.346 432.035 344.102V344.102Z" fill="black"/>
<path id="Vector_34" opacity="0.1" d="M420.747 345.362L415.239 359.581C414.985 357.732 414.597 355.883 414.208 354.078L414.122 354.282V353.985L417.123 346.408L420.747 345.362Z" fill="black"/>
<path id="Vector_35" opacity="0.1" d="M437.251 315.66C436.933 315.933 436.554 316.095 436.158 316.128C435.551 316.152 434.944 316.057 434.365 315.847L430.051 314.609C429.916 314.571 429.784 314.517 429.658 314.449C429.73 313.585 429.874 312.584 430.281 312.248C430.89 311.781 432.711 312.408 433.402 312.518C434.59 312.705 435.798 312.925 436.958 313.184C437.138 313.994 437.236 314.824 437.251 315.66V315.66Z" fill="black"/>
<path id="Vector_36" d="M440.899 282.92C440.99 283.377 441.119 283.828 441.196 284.29C441.325 285.424 441.291 286.575 441.095 287.696L440.702 290.844L440.309 294.008L438.789 306.185L438.415 309.2L437.888 313.409C437.863 313.76 437.785 314.102 437.658 314.422C437.501 314.721 437.282 314.971 437.02 315.148C436.758 315.326 436.462 315.426 436.158 315.44C435.551 315.462 434.945 315.367 434.365 315.159L430.051 313.916C429.862 313.877 429.682 313.793 429.524 313.668C429.392 313.52 429.297 313.335 429.248 313.131C429.199 312.927 429.198 312.711 429.246 312.507C429.308 312.089 429.466 311.698 429.519 311.28C429.624 310.466 429.327 309.629 429.432 308.82C429.536 308.305 429.697 307.808 429.912 307.34C431.35 303.692 430.516 299.433 431.005 295.471C431.445 292.353 432.592 289.423 434.331 286.975C435.405 285.43 436.638 284.041 438.003 282.837C438.54 282.359 439.393 281.374 440.069 281.187C440.937 280.978 440.755 282.227 440.899 282.92Z" fill="#46C3A1"/>
<path id="Vector_37" d="M408.25 235.522C407.934 236.677 408.428 237.948 408.202 239.126C407.958 240.424 406.894 241.327 406.592 242.631C406.112 244.617 407.579 246.428 408.653 248.078C412.631 254.208 412.109 262.693 410.748 270.171C409.652 276.17 408.137 282.059 406.218 287.779C405.619 289.556 404.957 291.361 403.778 292.693C405.983 291.966 408.327 291.234 410.537 291.939C413.336 292.83 415.752 295.95 418.59 295.24C420.296 294.805 421.495 293.067 423.028 292.104C425.905 290.326 429.37 291.443 432.577 292.016C433.268 292.203 433.991 292.161 434.662 291.895C435.175 291.578 435.61 291.118 435.928 290.558C437.359 288.45 438.216 285.904 438.392 283.239C438.467 281.912 438.297 280.582 437.891 279.337C437.485 278.091 436.854 276.959 436.038 276.014C435.357 275.277 434.542 274.683 434.02 273.813C433.512 272.798 433.239 271.65 433.229 270.479C432.85 264.426 434.135 258.247 432.812 252.392C432.333 250.307 431.551 248.309 431.34 246.174C431.077 243.517 431.705 240.672 430.784 238.24C430.06 236.308 428.464 234.938 426.743 234.234C425.023 233.53 423.182 233.332 421.356 233.134C418.729 232.88 409.348 231.587 408.25 235.522Z" fill="#33313F"/>
<g id="Group" opacity="0.1">
<path id="Vector_38" opacity="0.1" d="M410.748 270.171C409.658 276.146 408.151 282.01 406.242 287.707C406.572 286.953 406.85 286.161 407.114 285.374C409.036 279.655 410.551 273.766 411.644 267.766C413.01 260.283 413.533 251.809 409.554 245.674C408.595 244.21 407.363 242.625 407.407 240.909C407.052 241.428 406.777 242.012 406.592 242.636C406.112 244.623 407.579 246.433 408.653 248.084C412.631 254.208 412.109 262.693 410.748 270.171Z" fill="black"/>
<path id="Vector_39" opacity="0.1" d="M408.26 238.57C408.644 238.022 408.931 237.391 409.103 236.716C409.178 235.898 409.158 235.073 409.046 234.262C408.677 234.581 408.399 235.02 408.25 235.522C407.967 236.496 408.293 237.552 408.26 238.57Z" fill="black"/>
<path id="Vector_40" opacity="0.1" d="M436.829 288.136C436.511 288.696 436.076 289.154 435.563 289.468C434.893 289.74 434.169 289.782 433.478 289.589C430.271 289.039 426.767 287.905 423.93 289.683C422.391 290.64 421.197 292.379 419.486 292.819C416.653 293.545 414.237 290.425 411.438 289.518C409.453 288.885 407.363 289.408 405.365 290.068C404.967 291.04 404.431 291.929 403.778 292.698C405.983 291.972 408.327 291.24 410.537 291.944C413.336 292.836 415.752 295.956 418.59 295.246C420.296 294.811 421.495 293.072 423.028 292.109C425.905 290.332 429.37 291.449 432.577 292.021C433.268 292.208 433.991 292.166 434.662 291.9C435.175 291.584 435.61 291.124 435.928 290.563C436.796 289.248 437.467 287.775 437.912 286.205C437.592 286.878 437.23 287.523 436.829 288.136Z" fill="black"/>
</g>
</g>
</g>
<defs>
<linearGradient id="paint0_linear_1350_169" x1="368.426" y1="337.984" x2="441.766" y2="337.984" gradientUnits="userSpaceOnUse">
<stop stop-color="#808080" stop-opacity="0.25"/>
<stop offset="0.54" stop-color="#808080" stop-opacity="0.12"/>
<stop offset="1" stop-color="#808080" stop-opacity="0.1"/>
</linearGradient>

<style>
#f1 {
 animation: changef 0.8s infinite alternate;
}
#f3 {
 animation: changef 0.8s infinite alternate;
}
@keyframes changef {

    100% {
opacity:0.2;
    }
}


#innerRing{
 animation: ringanimation 0.8s infinite alternate;
 
}
@keyframes ringanimation {

    100% {
opacity:0.8;
    }
}


#middleRing{
animation: ringanimation1 1.4s infinite alternate;
           transform-origin: center;
transform-box: fill-box;
}
@keyframes ringanimation1 {

    100% {
opacity:0.4;
transform: rotate(360deg);
    }
}
#topRing{
animation: ringanimation2 1.5s infinite alternate;
}
@keyframes ringanimation2 {

    100% {
opacity:0;
    }
}

#star1{
   animation: star1 3s infinite alternate;  
}
@keyframes star1 {
    0% {
opacity:0;
    }
    10% {
opacity:0;
    }
    20% {
opacity:1;
    }
}
#star2{
   animation: star2 4s infinite alternate;  
}
@keyframes star2 {
    0% {
opacity:0;
    }
    30% {
opacity:0;
    }
    40% {
opacity:1;
    }
}

#star3{
   animation: star2 5s infinite alternate;  
}
@keyframes star2 {
    0% {
opacity:0;
    }
    50% {
opacity:0;
    }
    60% {
opacity:1;
    }
}

#star4{
   animation: star2 6s infinite alternate;  
}
@keyframes star2 {
    0% {
opacity:0;
    }
    60% {
opacity:0;
    }
    80% {
opacity:1;
    }
}

#color{
   animation: changeColorcolor 3s infinite alternate;  
}
    @keyframes changeColorcolor{
    0%{
opacity:0.5;

    }
    100% {
opacity:1;




    }
}

<!-- background animation -->
#background{
    animation: changeC 3s infinite alternate;
}
@keyframes changeC {
    0%{
opacity:0.1;
fill:#46C3A1;
    }
    100% {
opacity:0.3;
fill:#46C3A1;
    }
}
</style>
</defs>
</svg>
