<svg  viewBox="0 0 1280 320" fill="none" xmlns="http://www.w3.org/2000/svg">
<g id="wave">
<g id="wave2">
<path id="Vector" fill-rule="evenodd" clip-rule="evenodd" d="M0 69.6599H30C61 69.6599 122 69.6599 183 82.7211C244 96.8708 305 125.17 366 104.49C427 82.7211 488 13.0612 549 13.0612C610 13.0612 670 82.7211 731 111.02C792 139.32 853 125.17 914 90.3401C975 55.5102 1036 0 1097 0C1158 0 1219 55.5102 1250 82.7211L1280 111.02V320H1250C1219 320 1158 320 1097 320C1036 320 975 320 914 320C853 320 792 320 731 320C670 320 610 320 549 320C488 320 427 320 366 320C305 320 244 320 183 320C122 320 61 320 30 320H0V69.6599Z" fill="#414141"/>
</g>
<g id="wave1">
<path id="Vector_2" fill-rule="evenodd" clip-rule="evenodd" d="M0 0L30 36.0694C61 71.2139 122 142.428 183 147.977C244 154.451 305 95.2601 366 83.237C427 71.2139 488 107.283 549 136.879C610 166.474 670 189.595 731 160C792 130.405 853 48.0925 914 41.6185C975 36.0694 1036 107.283 1097 136.879C1158 166.474 1219 154.451 1250 147.977L1280 142.428V320H1250C1219 320 1158 320 1097 320C1036 320 975 320 914 320C853 320 792 320 731 320C670 320 610 320 549 320C488 320 427 320 366 320C305 320 244 320 183 320C122 320 61 320 30 320H0V0Z" fill="#333333" fill-opacity="0.51"/>
</g>
</g>
<defs>
<style>

#wave1{
   animation: dance 3s infinite alternate;
  background-color:#fffff
}
@keyframes dance {
    0% {
    animation-duration: 0.5s;
  opacity: 0.5;
    }
    0% {
        transform: translateY(-10px);
    }
}

</style>
</defs>
</svg>
